<?xml version="1.0" encoding="UTF-8" standalone="no"?>
<!DOCTYPE svg PUBLIC "-//W3C//DTD SVG 1.1//EN" "http://www.w3.org/Graphics/SVG/1.1/DTD/svg11.dtd">
<svg width="100%" height="100%" viewBox="0 0 48 48" version="1.1" xmlns="http://www.w3.org/2000/svg" xmlns:xlink="http://www.w3.org/1999/xlink" xml:space="preserve" xmlns:serif="http://www.serif.com/" style="fill-rule:evenodd;clip-rule:evenodd;stroke-linecap:round;stroke-linejoin:round;">
    <g transform="matrix(1,0,0,1,-2,5.5)">
        <path d="M21,5C21,3.896 20.104,3 19,3L5,3C3.896,3 3,3.896 3,5L3,19C3,20.104 3.896,21 5,21L19,21C20.104,21 21,20.104 21,19L21,5Z" style="fill:none;stroke:white;stroke-width:2px;"/>
        <path d="M3,9L21,9" style="fill:none;fill-rule:nonzero;stroke:white;stroke-width:2px;"/>
    </g>
    <g transform="matrix(1,0,0,1,-10,9.5)">
        <g transform="matrix(1,0,0,1,36,9)">
            <path d="M21,5C21,3.896 20.104,3 19,3L5,3C3.896,3 3,3.896 3,5L3,19C3,20.104 3.896,21 5,21L19,21C20.104,21 21,20.104 21,19L21,5Z" style="fill:none;stroke:white;stroke-width:2px;"/>
        </g>
        <g transform="matrix(1,0,0,1,36,9)">
            <path d="M3,9L21,9" style="fill:none;fill-rule:nonzero;stroke:white;stroke-width:2px;"/>
        </g>
    </g>
    <g transform="matrix(1,0,0,1,-4,-2.5)">
        <path d="M23,20C29.667,20 27.639,26.155 28,29C28.37,31.918 28.333,34.333 33,34" style="fill:none;stroke:white;stroke-width:2px;stroke-miterlimit:1.5;"/>
    </g>
</svg>
