<svg width="76" height="96" viewBox="0 0 76 96" fill="none" xmlns="http://www.w3.org/2000/svg">
<path d="M44.6855 94.6955L27.5733 55.2677C27.3738 54.8081 27.5847 54.2738 28.0443 54.0744L49.2072 44.8893C49.6668 44.6898 50.2011 44.9007 50.4005 45.3603L67.5128 84.7881C67.8043 85.4597 67.2211 86.1822 66.503 86.0389L53.9701 83.5375C53.5989 83.4634 53.2208 83.6275 53.0214 83.9492L46.2888 94.8122C45.9031 95.4345 44.977 95.3671 44.6855 94.6955Z" fill="#BB2200"/>
<path d="M8.84832 84.4144L26.5645 45.2543C26.771 44.7978 27.3085 44.5952 27.765 44.8017L48.7842 54.3108C49.2407 54.5174 49.4433 55.0548 49.2368 55.5113L31.5207 94.6714C31.2189 95.3385 30.2919 95.3917 29.9157 94.7635L23.3509 83.7983C23.1565 83.4736 22.7809 83.3037 22.4087 83.3721L9.83874 85.6806C9.11859 85.8128 8.54652 85.0815 8.84832 84.4144Z" fill="#D62700"/>
<path d="M70.3499 37.7215C70.3499 55.5879 55.8664 70.0715 38 70.0715C20.1336 70.0715 5.65005 55.5879 5.65005 37.7215C5.65005 19.8551 20.1336 5.37158 38 5.37158C55.8664 5.37158 70.3499 19.8551 70.3499 37.7215Z" fill="#EEDA92"/>
<path fill-rule="evenodd" clip-rule="evenodd" d="M75.534 37.7214C75.534 58.4509 58.7294 75.2554 38 75.2554C17.2706 75.2554 0.466064 58.4509 0.466064 37.7214C0.466064 16.992 17.2706 0.1875 38 0.1875C58.7294 0.1875 75.534 16.992 75.534 37.7214ZM38 70.0714C55.8664 70.0714 70.35 55.5878 70.35 37.7214C70.35 19.8551 55.8664 5.3715 38 5.3715C20.1336 5.3715 5.65006 19.8551 5.65006 37.7214C5.65006 55.5878 20.1336 70.0714 38 70.0714Z" fill="#DAB946"/>
<g filter="url(#filter0_i_476_466)">
<path d="M24.3238 29.1555C24.0707 28.9024 24.0707 28.4921 24.3238 28.2391L35.6695 16.8934C35.9225 16.6403 36.3328 16.6403 36.5859 16.8934L47.7347 28.0422C47.9878 28.2953 47.9878 28.7056 47.7347 28.9587L36.3891 40.3043C36.136 40.5574 35.7257 40.5574 35.4726 40.3043L24.3238 29.1555Z" fill="#DAB946"/>
</g>
<g filter="url(#filter1_i_476_466)">
<path d="M35.5688 41.0061C35.8219 40.753 36.2322 40.753 36.4852 41.0061L50.7601 55.2809C51.0131 55.5339 51.0131 55.9442 50.7601 56.1973L47.2976 59.6598C47.0445 59.9128 46.6342 59.9128 46.3812 59.6598L32.1064 45.3849C31.8533 45.1319 31.8533 44.7216 32.1064 44.4685L35.5688 41.0061Z" fill="#DAB946"/>
</g>
<path d="M70.3499 37.7215C70.3499 55.5879 55.8664 70.0715 38 70.0715C20.1336 70.0715 5.65005 55.5879 5.65005 37.7215C5.65005 19.8551 20.1336 5.37158 38 5.37158C55.8664 5.37158 70.3499 19.8551 70.3499 37.7215Z" fill="url(#paint0_linear_476_466)" fill-opacity="0.2"/>
<path fill-rule="evenodd" clip-rule="evenodd" d="M75.534 37.7214C75.534 58.4509 58.7294 75.2554 38 75.2554C17.2706 75.2554 0.466064 58.4509 0.466064 37.7214C0.466064 16.992 17.2706 0.1875 38 0.1875C58.7294 0.1875 75.534 16.992 75.534 37.7214ZM38 70.0714C55.8664 70.0714 70.35 55.5878 70.35 37.7214C70.35 19.8551 55.8664 5.3715 38 5.3715C20.1336 5.3715 5.65006 19.8551 5.65006 37.7214C5.65006 55.5878 20.1336 70.0714 38 70.0714Z" fill="url(#paint1_linear_476_466)" fill-opacity="0.3"/>
<defs>
<filter id="filter0_i_476_466" x="24.134" y="16.7036" width="23.7906" height="24.3089" filterUnits="userSpaceOnUse" color-interpolation-filters="sRGB">
<feFlood flood-opacity="0" result="BackgroundImageFix"/>
<feBlend mode="normal" in="SourceGraphic" in2="BackgroundImageFix" result="shape"/>
<feColorMatrix in="SourceAlpha" type="matrix" values="0 0 0 0 0 0 0 0 0 0 0 0 0 0 0 0 0 0 127 0" result="hardAlpha"/>
<feOffset dy="0.5184"/>
<feGaussianBlur stdDeviation="0.2592"/>
<feComposite in2="hardAlpha" operator="arithmetic" k2="-1" k3="1"/>
<feColorMatrix type="matrix" values="0 0 0 0 0 0 0 0 0 0 0 0 0 0 0 0 0 0 0.25 0"/>
<feBlend mode="normal" in2="shape" result="effect1_innerShadow_476_466"/>
</filter>
<filter id="filter1_i_476_466" x="31.9166" y="40.8162" width="19.0333" height="19.5518" filterUnits="userSpaceOnUse" color-interpolation-filters="sRGB">
<feFlood flood-opacity="0" result="BackgroundImageFix"/>
<feBlend mode="normal" in="SourceGraphic" in2="BackgroundImageFix" result="shape"/>
<feColorMatrix in="SourceAlpha" type="matrix" values="0 0 0 0 0 0 0 0 0 0 0 0 0 0 0 0 0 0 127 0" result="hardAlpha"/>
<feOffset dy="0.5184"/>
<feGaussianBlur stdDeviation="0.2592"/>
<feComposite in2="hardAlpha" operator="arithmetic" k2="-1" k3="1"/>
<feColorMatrix type="matrix" values="0 0 0 0 0 0 0 0 0 0 0 0 0 0 0 0 0 0 0.25 0"/>
<feBlend mode="normal" in2="shape" result="effect1_innerShadow_476_466"/>
</filter>
<linearGradient id="paint0_linear_476_466" x1="49.3696" y1="5.37158" x2="28.0108" y2="70.0583" gradientUnits="userSpaceOnUse">
<stop stop-color="#FFC700"/>
<stop offset="0.5" stop-color="white"/>
<stop offset="1" stop-color="#FFC700"/>
</linearGradient>
<linearGradient id="paint1_linear_476_466" x1="44.8538" y1="3.35767" x2="29.1703" y2="72.6823" gradientUnits="userSpaceOnUse">
<stop stop-color="#4B4B4B"/>
<stop offset="0.464" stop-color="white"/>
<stop offset="1" stop-color="#393939"/>
</linearGradient>
</defs>
</svg>
