<svg width="74" height="95" viewBox="0 0 74 95" fill="none" xmlns="http://www.w3.org/2000/svg">
<g id="Group 56">
<path id="Vector 25" d="M43.6885 93.7288L26.622 54.4065C26.4353 53.9764 26.6327 53.4763 27.0628 53.2897L48.1902 44.12C48.6203 43.9333 49.1204 44.1307 49.3071 44.5608L66.3736 83.8831C66.6464 84.5117 66.1006 85.1879 65.4286 85.0538L52.8396 82.5412C52.4922 82.4718 52.1383 82.6254 51.9517 82.9265L45.189 93.8381C44.828 94.4205 43.9613 94.3574 43.6885 93.7288Z" fill="#BB2200"/>
<path id="Vector 26" d="M7.99306 83.6109L25.6619 44.5555C25.8551 44.1283 26.3581 43.9387 26.7854 44.1319L47.7693 53.6252C48.1966 53.8184 48.3862 54.3215 48.1929 54.7487L30.5241 93.8041C30.2417 94.4284 29.3741 94.4782 29.0221 93.8902L22.4279 82.876C22.246 82.5721 21.8945 82.4131 21.5461 82.4771L8.91997 84.7959C8.246 84.9197 7.71061 84.2352 7.99306 83.6109Z" fill="#D62700"/>
<path id="Ellipse 20" d="M69.1482 37.1872C69.1482 54.9423 54.7549 69.3356 36.9998 69.3356C19.2447 69.3356 4.85141 54.9423 4.85141 37.1872C4.85141 19.4321 19.2447 5.03882 36.9998 5.03882C54.7549 5.03882 69.1482 19.4321 69.1482 37.1872Z" fill="#EEDA92"/>
<path id="Ellipse 20 (Stroke)" fill-rule="evenodd" clip-rule="evenodd" d="M74 37.1875C74 57.622 57.4345 74.1875 37 74.1875C16.5655 74.1875 0 57.622 0 37.1875C0 16.753 16.5655 0.1875 37 0.1875C57.4345 0.1875 74 16.753 74 37.1875ZM37 69.3359C54.7551 69.3359 69.1484 54.9426 69.1484 37.1875C69.1484 19.4324 54.7551 5.0391 37 5.0391C19.2449 5.0391 4.8516 19.4324 4.8516 37.1875C4.8516 54.9426 19.2449 69.3359 37 69.3359Z" fill="#DAB946"/>
<g id="Group 45">
<g id="Rectangle 196" filter="url(#filter0_i_102_946)">
<path d="M23.2112 28.4768C23.0691 28.3347 23.0691 28.1043 23.2112 27.9622L34.8823 16.2911C35.0244 16.149 35.2548 16.149 35.3969 16.2911L46.8724 27.7666C47.0145 27.9087 47.0145 28.1391 46.8724 28.2812L35.2013 39.9523C35.0592 40.0944 34.8288 40.0944 34.6867 39.9523L23.2112 28.4768Z" fill="#DAB946"/>
</g>
<g id="Rectangle 197" filter="url(#filter1_i_102_946)">
<path d="M34.9538 40.0816C35.0011 40.0342 35.0779 40.0342 35.1253 40.0816L50.0503 55.0067C50.0977 55.054 50.0977 55.1308 50.0503 55.1782L45.8703 59.3583C45.8229 59.4057 45.7461 59.4057 45.6987 59.3583L30.7737 44.4332C30.7263 44.3859 30.7263 44.3091 30.7737 44.2617L34.9538 40.0816Z" fill="#DAB946"/>
</g>
</g>
</g>
<defs>
<filter id="filter0_i_102_946" x="23.1046" y="16.1846" width="23.8744" height="24.8743" filterUnits="userSpaceOnUse" color-interpolation-filters="sRGB">
<feFlood flood-opacity="0" result="BackgroundImageFix"/>
<feBlend mode="normal" in="SourceGraphic" in2="BackgroundImageFix" result="shape"/>
<feColorMatrix in="SourceAlpha" type="matrix" values="0 0 0 0 0 0 0 0 0 0 0 0 0 0 0 0 0 0 127 0" result="hardAlpha"/>
<feOffset dy="1"/>
<feGaussianBlur stdDeviation="0.5"/>
<feComposite in2="hardAlpha" operator="arithmetic" k2="-1" k3="1"/>
<feColorMatrix type="matrix" values="0 0 0 0 0 0 0 0 0 0 0 0 0 0 0 0 0 0 0.25 0"/>
<feBlend mode="normal" in2="shape" result="effect1_innerShadow_102_946"/>
</filter>
<filter id="filter1_i_102_946" x="30.7382" y="40.0461" width="19.3477" height="20.3477" filterUnits="userSpaceOnUse" color-interpolation-filters="sRGB">
<feFlood flood-opacity="0" result="BackgroundImageFix"/>
<feBlend mode="normal" in="SourceGraphic" in2="BackgroundImageFix" result="shape"/>
<feColorMatrix in="SourceAlpha" type="matrix" values="0 0 0 0 0 0 0 0 0 0 0 0 0 0 0 0 0 0 127 0" result="hardAlpha"/>
<feOffset dy="1"/>
<feGaussianBlur stdDeviation="0.5"/>
<feComposite in2="hardAlpha" operator="arithmetic" k2="-1" k3="1"/>
<feColorMatrix type="matrix" values="0 0 0 0 0 0 0 0 0 0 0 0 0 0 0 0 0 0 0.25 0"/>
<feBlend mode="normal" in2="shape" result="effect1_innerShadow_102_946"/>
</filter>
</defs>
</svg>
