<svg width="76" height="96" viewBox="0 0 76 96" fill="none" xmlns="http://www.w3.org/2000/svg">
<path d="M44.6855 94.6955L27.5732 55.2677C27.3737 54.8081 27.5846 54.2738 28.0442 54.0744L49.2071 44.8893C49.6667 44.6898 50.201 44.9007 50.4005 45.3603L67.5128 84.7881C67.8043 85.4597 67.221 86.1822 66.503 86.0389L53.9701 83.5375C53.5989 83.4634 53.2208 83.6275 53.0214 83.9492L46.2888 94.8122C45.9031 95.4345 44.977 95.3671 44.6855 94.6955Z" fill="#BB2200"/>
<path d="M8.84844 84.4144L26.5646 45.2543C26.7711 44.7978 27.3086 44.5952 27.7651 44.8017L48.7843 54.3108C49.2408 54.5174 49.4435 55.0548 49.2369 55.5113L31.5208 94.6714C31.219 95.3385 30.292 95.3917 29.9159 94.7635L23.351 83.7983C23.1566 83.4736 22.781 83.3037 22.4088 83.3721L9.83886 85.6806C9.11871 85.8128 8.54664 85.0815 8.84844 84.4144Z" fill="#D62700"/>
<path d="M70.35 37.7215C70.35 55.5879 55.8664 70.0715 38 70.0715C20.1336 70.0715 5.65009 55.5879 5.65009 37.7215C5.65009 19.8551 20.1336 5.37158 38 5.37158C55.8664 5.37158 70.35 19.8551 70.35 37.7215Z" fill="#AEAEAE"/>
<path fill-rule="evenodd" clip-rule="evenodd" d="M75.534 37.7214C75.534 58.4509 58.7294 75.2554 38 75.2554C17.2706 75.2554 0.466064 58.4509 0.466064 37.7214C0.466064 16.992 17.2706 0.1875 38 0.1875C58.7294 0.1875 75.534 16.992 75.534 37.7214ZM38 70.0714C55.8664 70.0714 70.35 55.5878 70.35 37.7214C70.35 19.8551 55.8664 5.3715 38 5.3715C20.1336 5.3715 5.65006 19.8551 5.65006 37.7214C5.65006 55.5878 20.1336 70.0714 38 70.0714Z" fill="url(#paint0_linear_476_484)" fill-opacity="0.5"/>
<g filter="url(#filter0_i_476_484)">
<path d="M24.7865 29.1555C24.5335 28.9024 24.5335 28.4921 24.7865 28.2391L36.1322 16.8934C36.3853 16.6403 36.7956 16.6403 37.0486 16.8934L48.1975 28.0422C48.4505 28.2953 48.4505 28.7056 48.1975 28.9587L36.8518 40.3043C36.5987 40.5574 36.1884 40.5574 35.9354 40.3043L24.7865 29.1555Z" fill="#6C6C6C"/>
</g>
<g filter="url(#filter1_i_476_484)">
<path d="M36.0316 41.0061C36.2847 40.753 36.695 40.753 36.948 41.0061L51.2228 55.2809C51.4759 55.5339 51.4759 55.9442 51.2228 56.1973L47.7604 59.6598C47.5073 59.9128 47.097 59.9128 46.8439 59.6598L32.5691 45.3849C32.3161 45.1319 32.3161 44.7216 32.5691 44.4685L36.0316 41.0061Z" fill="#6C6C6C"/>
</g>
<path d="M70.35 37.7215C70.35 55.5879 55.8664 70.0715 38 70.0715C20.1336 70.0715 5.65009 55.5879 5.65009 37.7215C5.65009 19.8551 20.1336 5.37158 38 5.37158C55.8664 5.37158 70.35 19.8551 70.35 37.7215Z" fill="url(#paint1_linear_476_484)" fill-opacity="0.2"/>
<path fill-rule="evenodd" clip-rule="evenodd" d="M75.534 37.7214C75.534 58.4509 58.7294 75.2554 38 75.2554C17.2706 75.2554 0.466064 58.4509 0.466064 37.7214C0.466064 16.992 17.2706 0.1875 38 0.1875C58.7294 0.1875 75.534 16.992 75.534 37.7214ZM38 70.0714C55.8664 70.0714 70.35 55.5878 70.35 37.7214C70.35 19.8551 55.8664 5.3715 38 5.3715C20.1336 5.3715 5.65006 19.8551 5.65006 37.7214C5.65006 55.5878 20.1336 70.0714 38 70.0714Z" fill="url(#paint2_linear_476_484)"/>
<defs>
<filter id="filter0_i_476_484" x="24.5967" y="16.7036" width="23.7905" height="24.3089" filterUnits="userSpaceOnUse" color-interpolation-filters="sRGB">
<feFlood flood-opacity="0" result="BackgroundImageFix"/>
<feBlend mode="normal" in="SourceGraphic" in2="BackgroundImageFix" result="shape"/>
<feColorMatrix in="SourceAlpha" type="matrix" values="0 0 0 0 0 0 0 0 0 0 0 0 0 0 0 0 0 0 127 0" result="hardAlpha"/>
<feOffset dy="0.5184"/>
<feGaussianBlur stdDeviation="0.2592"/>
<feComposite in2="hardAlpha" operator="arithmetic" k2="-1" k3="1"/>
<feColorMatrix type="matrix" values="0 0 0 0 0 0 0 0 0 0 0 0 0 0 0 0 0 0 0.25 0"/>
<feBlend mode="normal" in2="shape" result="effect1_innerShadow_476_484"/>
</filter>
<filter id="filter1_i_476_484" x="32.3793" y="40.8162" width="19.0333" height="19.5518" filterUnits="userSpaceOnUse" color-interpolation-filters="sRGB">
<feFlood flood-opacity="0" result="BackgroundImageFix"/>
<feBlend mode="normal" in="SourceGraphic" in2="BackgroundImageFix" result="shape"/>
<feColorMatrix in="SourceAlpha" type="matrix" values="0 0 0 0 0 0 0 0 0 0 0 0 0 0 0 0 0 0 127 0" result="hardAlpha"/>
<feOffset dy="0.5184"/>
<feGaussianBlur stdDeviation="0.2592"/>
<feComposite in2="hardAlpha" operator="arithmetic" k2="-1" k3="1"/>
<feColorMatrix type="matrix" values="0 0 0 0 0 0 0 0 0 0 0 0 0 0 0 0 0 0 0.25 0"/>
<feBlend mode="normal" in2="shape" result="effect1_innerShadow_476_484"/>
</filter>
<linearGradient id="paint0_linear_476_484" x1="38" y1="5.3715" x2="38" y2="70.0714" gradientUnits="userSpaceOnUse">
<stop stop-color="#313131"/>
<stop offset="0.5" stop-color="#7D7D7D"/>
<stop offset="1"/>
</linearGradient>
<linearGradient id="paint1_linear_476_484" x1="46.8421" y1="2.19827" x2="31.3417" y2="78.6019" gradientUnits="userSpaceOnUse">
<stop/>
<stop offset="0.474" stop-color="white"/>
<stop offset="1"/>
</linearGradient>
<linearGradient id="paint2_linear_476_484" x1="42.0821" y1="11.1689" x2="23.1033" y2="73.7808" gradientUnits="userSpaceOnUse">
<stop stop-color="#515151"/>
<stop offset="0.409877" stop-color="#B7B7B7"/>
<stop offset="1" stop-color="#444444"/>
</linearGradient>
</defs>
</svg>
