<svg id="visual" viewBox="0 0 900 600" width="900" height="600" xmlns="http://www.w3.org/2000/svg" xmlns:xlink="http://www.w3.org/1999/xlink" version="1.1"><path d="M0 151L13.7 146C27.3 141 54.7 131 82 116C109.3 101 136.7 81 163.8 82C191 83 218 105 245.2 109C272.3 113 299.7 99 327 98C354.3 97 381.7 109 409 124C436.3 139 463.7 157 491 151C518.3 145 545.7 115 573 109C600.3 103 627.7 121 654.8 137C682 153 709 167 736.2 161C763.3 155 790.7 129 818 121C845.3 113 872.7 123 886.3 128L900 133L900 0L886.3 0C872.7 0 845.3 0 818 0C790.7 0 763.3 0 736.2 0C709 0 682 0 654.8 0C627.7 0 600.3 0 573 0C545.7 0 518.3 0 491 0C463.7 0 436.3 0 409 0C381.7 0 354.3 0 327 0C299.7 0 272.3 0 245.2 0C218 0 191 0 163.8 0C136.7 0 109.3 0 82 0C54.7 0 27.3 0 13.7 0L0 0Z" fill="#252525"></path><path d="M0 199L13.7 201C27.3 203 54.7 207 82 191C109.3 175 136.7 139 163.8 134C191 129 218 155 245.2 159C272.3 163 299.7 145 327 155C354.3 165 381.7 203 409 218C436.3 233 463.7 225 491 214C518.3 203 545.7 189 573 188C600.3 187 627.7 199 654.8 209C682 219 709 227 736.2 218C763.3 209 790.7 183 818 184C845.3 185 872.7 213 886.3 227L900 241L900 131L886.3 126C872.7 121 845.3 111 818 119C790.7 127 763.3 153 736.2 159C709 165 682 151 654.8 135C627.7 119 600.3 101 573 107C545.7 113 518.3 143 491 149C463.7 155 436.3 137 409 122C381.7 107 354.3 95 327 96C299.7 97 272.3 111 245.2 107C218 103 191 81 163.8 80C136.7 79 109.3 99 82 114C54.7 129 27.3 139 13.7 144L0 149Z" fill="#5a2d2d"></path><path d="M0 343L13.7 337C27.3 331 54.7 319 82 304C109.3 289 136.7 271 163.8 280C191 289 218 325 245.2 344C272.3 363 299.7 365 327 371C354.3 377 381.7 387 409 389C436.3 391 463.7 385 491 380C518.3 375 545.7 371 573 375C600.3 379 627.7 391 654.8 390C682 389 709 375 736.2 375C763.3 375 790.7 389 818 381C845.3 373 872.7 343 886.3 328L900 313L900 239L886.3 225C872.7 211 845.3 183 818 182C790.7 181 763.3 207 736.2 216C709 225 682 217 654.8 207C627.7 197 600.3 185 573 186C545.7 187 518.3 201 491 212C463.7 223 436.3 231 409 216C381.7 201 354.3 163 327 153C299.7 143 272.3 161 245.2 157C218 153 191 127 163.8 132C136.7 137 109.3 173 82 189C54.7 205 27.3 201 13.7 199L0 197Z" fill="#8f2f35"></path><path d="M0 505L13.7 506C27.3 507 54.7 509 82 508C109.3 507 136.7 503 163.8 505C191 507 218 515 245.2 519C272.3 523 299.7 523 327 523C354.3 523 381.7 523 409 530C436.3 537 463.7 551 491 554C518.3 557 545.7 549 573 547C600.3 545 627.7 549 654.8 552C682 555 709 557 736.2 559C763.3 561 790.7 563 818 554C845.3 545 872.7 525 886.3 515L900 505L900 311L886.3 326C872.7 341 845.3 371 818 379C790.7 387 763.3 373 736.2 373C709 373 682 387 654.8 388C627.7 389 600.3 377 573 373C545.7 369 518.3 373 491 378C463.7 383 436.3 389 409 387C381.7 385 354.3 375 327 369C299.7 363 272.3 361 245.2 342C218 323 191 287 163.8 278C136.7 269 109.3 287 82 302C54.7 317 27.3 329 13.7 335L0 341Z" fill="#c6283d"></path><path d="M0 601L13.7 601C27.3 601 54.7 601 82 601C109.3 601 136.7 601 163.8 601C191 601 218 601 245.2 601C272.3 601 299.7 601 327 601C354.3 601 381.7 601 409 601C436.3 601 463.7 601 491 601C518.3 601 545.7 601 573 601C600.3 601 627.7 601 654.8 601C682 601 709 601 736.2 601C763.3 601 790.7 601 818 601C845.3 601 872.7 601 886.3 601L900 601L900 503L886.3 513C872.7 523 845.3 543 818 552C790.7 561 763.3 559 736.2 557C709 555 682 553 654.8 550C627.7 547 600.3 543 573 545C545.7 547 518.3 555 491 552C463.7 549 436.3 535 409 528C381.7 521 354.3 521 327 521C299.7 521 272.3 521 245.2 517C218 513 191 505 163.8 503C136.7 501 109.3 505 82 506C54.7 507 27.3 505 13.7 504L0 503Z" fill="#ff0046"></path></svg>