<svg id="visual" viewBox="0 0 1920 600" width="1920" height="600" xmlns="http://www.w3.org/2000/svg" xmlns:xlink="http://www.w3.org/1999/xlink" version="1.1"><rect x="0" y="0" width="1920" height="600" fill="#252525"></rect><path d="M0 435L45.7 425.2C91.3 415.3 182.7 395.7 274.2 383.8C365.7 372 457.3 368 548.8 364.5C640.3 361 731.7 358 823 363.7C914.3 369.3 1005.7 383.7 1097 399C1188.3 414.3 1279.7 430.7 1371.2 425.3C1462.7 420 1554.3 393 1645.8 384C1737.3 375 1828.7 384 1874.3 388.5L1920 393L1920 601L1874.3 601C1828.7 601 1737.3 601 1645.8 601C1554.3 601 1462.7 601 1371.2 601C1279.7 601 1188.3 601 1097 601C1005.7 601 914.3 601 823 601C731.7 601 640.3 601 548.8 601C457.3 601 365.7 601 274.2 601C182.7 601 91.3 601 45.7 601L0 601Z" fill="#fa7268"></path><path d="M0 427L45.7 432.5C91.3 438 182.7 449 274.2 449.7C365.7 450.3 457.3 440.7 548.8 441.7C640.3 442.7 731.7 454.3 823 448.2C914.3 442 1005.7 418 1097 414C1188.3 410 1279.7 426 1371.2 435.3C1462.7 444.7 1554.3 447.3 1645.8 449.8C1737.3 452.3 1828.7 454.7 1874.3 455.8L1920 457L1920 601L1874.3 601C1828.7 601 1737.3 601 1645.8 601C1554.3 601 1462.7 601 1371.2 601C1279.7 601 1188.3 601 1097 601C1005.7 601 914.3 601 823 601C731.7 601 640.3 601 548.8 601C457.3 601 365.7 601 274.2 601C182.7 601 91.3 601 45.7 601L0 601Z" fill="#ed615d"></path><path d="M0 483L45.7 478.7C91.3 474.3 182.7 465.7 274.2 466.7C365.7 467.7 457.3 478.3 548.8 475.5C640.3 472.7 731.7 456.3 823 457.2C914.3 458 1005.7 476 1097 479.2C1188.3 482.3 1279.7 470.7 1371.2 461.8C1462.7 453 1554.3 447 1645.8 444C1737.3 441 1828.7 441 1874.3 441L1920 441L1920 601L1874.3 601C1828.7 601 1737.3 601 1645.8 601C1554.3 601 1462.7 601 1371.2 601C1279.7 601 1188.3 601 1097 601C1005.7 601 914.3 601 823 601C731.7 601 640.3 601 548.8 601C457.3 601 365.7 601 274.2 601C182.7 601 91.3 601 45.7 601L0 601Z" fill="#e05052"></path><path d="M0 485L45.7 493.5C91.3 502 182.7 519 274.2 523C365.7 527 457.3 518 548.8 510.2C640.3 502.3 731.7 495.7 823 499.5C914.3 503.3 1005.7 517.7 1097 521C1188.3 524.3 1279.7 516.7 1371.2 515.8C1462.7 515 1554.3 521 1645.8 524C1737.3 527 1828.7 527 1874.3 527L1920 527L1920 601L1874.3 601C1828.7 601 1737.3 601 1645.8 601C1554.3 601 1462.7 601 1371.2 601C1279.7 601 1188.3 601 1097 601C1005.7 601 914.3 601 823 601C731.7 601 640.3 601 548.8 601C457.3 601 365.7 601 274.2 601C182.7 601 91.3 601 45.7 601L0 601Z" fill="#d33d47"></path><path d="M0 563L45.7 562.8C91.3 562.7 182.7 562.3 274.2 562.3C365.7 562.3 457.3 562.7 548.8 558.7C640.3 554.7 731.7 546.3 823 541.5C914.3 536.7 1005.7 535.3 1097 533C1188.3 530.7 1279.7 527.3 1371.2 529.7C1462.7 532 1554.3 540 1645.8 543.7C1737.3 547.3 1828.7 546.7 1874.3 546.3L1920 546L1920 601L1874.3 601C1828.7 601 1737.3 601 1645.8 601C1554.3 601 1462.7 601 1371.2 601C1279.7 601 1188.3 601 1097 601C1005.7 601 914.3 601 823 601C731.7 601 640.3 601 548.8 601C457.3 601 365.7 601 274.2 601C182.7 601 91.3 601 45.7 601L0 601Z" fill="#c6283d"></path></svg>