<?xml version="1.0" encoding="UTF-8" standalone="no"?>
<!DOCTYPE svg PUBLIC "-//W3C//DTD SVG 1.1//EN" "http://www.w3.org/Graphics/SVG/1.1/DTD/svg11.dtd">
<svg width="100%" height="100%" viewBox="0 0 128 128" version="1.1" xmlns="http://www.w3.org/2000/svg" xmlns:xlink="http://www.w3.org/1999/xlink" xml:space="preserve" xmlns:serif="http://www.serif.com/" style="fill-rule:evenodd;clip-rule:evenodd;stroke-linejoin:round;stroke-miterlimit:2;">
    <g transform="matrix(4.43817,0,0,4.42841,74.9785,88.2936)">
        <path d="M0,-10.724C-0.299,-10.275 -0.459,-9.748 -0.458,-9.208C-0.457,-8.486 -0.169,-7.793 0.342,-7.282C0.853,-6.772 1.546,-6.485 2.269,-6.485C2.808,-6.485 3.335,-6.645 3.784,-6.945C4.232,-7.244 4.582,-7.67 4.788,-8.169C4.994,-8.667 5.048,-9.216 4.943,-9.745C4.837,-10.274 4.577,-10.759 4.196,-11.141C3.814,-11.522 3.328,-11.781 2.799,-11.886C2.27,-11.991 1.721,-11.936 1.223,-11.73C0.725,-11.523 0.299,-11.173 0,-10.724M5.281,-11.225C5.68,-10.628 5.892,-9.926 5.892,-9.208C5.889,-8.247 5.506,-7.326 4.826,-6.646C4.145,-5.966 3.224,-5.584 2.262,-5.582C1.544,-5.582 0.843,-5.795 0.246,-6.194C-0.351,-6.593 -0.816,-7.16 -1.091,-7.823C-1.365,-8.487 -1.437,-9.217 -1.297,-9.921C-1.157,-10.625 -0.811,-11.271 -0.303,-11.779C0.205,-12.286 0.852,-12.632 1.556,-12.771C2.26,-12.911 2.99,-12.839 3.653,-12.563C4.316,-12.288 4.883,-11.823 5.281,-11.225M-7.843,1.977L-9.62,1.242C-9.362,1.78 -8.953,2.23 -8.444,2.539C-7.934,2.848 -7.346,3.002 -6.75,2.982C-6.155,2.962 -5.578,2.77 -5.09,2.427C-4.602,2.085 -4.225,1.608 -4.004,1.055C-3.782,0.502 -3.727,-0.104 -3.844,-0.688C-3.961,-1.272 -4.246,-1.81 -4.663,-2.235C-5.081,-2.66 -5.613,-2.954 -6.195,-3.082C-6.777,-3.21 -7.384,-3.165 -7.941,-2.954L-6.108,-2.194C-5.57,-1.954 -5.147,-1.513 -4.93,-0.966C-4.712,-0.418 -4.718,0.192 -4.944,0.736C-5.17,1.28 -5.6,1.713 -6.142,1.945C-6.683,2.176 -7.294,2.186 -7.843,1.974L-7.843,1.977ZM-12.295,-16.107C-9.628,-18.569 -6.133,-19.936 -2.504,-19.938L-2.497,-19.915C0.19,-19.916 2.824,-19.167 5.108,-17.752C7.393,-16.338 9.238,-14.314 10.435,-11.908C11.632,-9.502 12.134,-6.81 11.885,-4.135C11.635,-1.459 10.645,1.094 9.024,3.237C7.403,5.38 5.216,7.028 2.709,7.996C0.202,8.965 -2.525,9.214 -5.165,8.717C-7.806,8.22 -10.256,6.996 -12.239,5.182C-14.222,3.369 -15.66,1.038 -16.39,-1.548L-10.855,0.742C-10.653,1.734 -10.089,2.616 -9.274,3.217C-8.459,3.817 -7.45,4.094 -6.443,3.994C-5.435,3.893 -4.501,3.422 -3.821,2.673C-3.14,1.923 -2.762,0.947 -2.76,-0.066L-2.76,-0.259L2.148,-3.761L2.262,-3.761C3.34,-3.761 4.393,-4.081 5.288,-4.679C6.184,-5.278 6.882,-6.129 7.295,-7.124C7.707,-8.119 7.815,-9.214 7.605,-10.271C7.394,-11.328 6.876,-12.298 6.114,-13.06C5.352,-13.822 4.382,-14.34 3.325,-14.551C2.268,-14.761 1.173,-14.653 0.178,-14.241C-0.817,-13.828 -1.668,-13.13 -2.267,-12.234C-2.865,-11.339 -3.185,-10.286 -3.185,-9.208L-3.185,-9.151L-6.627,-4.164L-6.855,-4.164C-7.676,-4.164 -8.478,-3.916 -9.154,-3.451L-16.894,-6.653C-16.603,-10.27 -14.961,-13.646 -12.295,-16.107" style="fill:white;"/>
    </g>
</svg>
