<svg id="visual" viewBox="0 0 900 600" width="900" height="600" xmlns="http://www.w3.org/2000/svg" xmlns:xlink="http://www.w3.org/1999/xlink" version="1.1"><rect x="0" y="0" width="900" height="600" fill="#252525"></rect><path d="M0 75L16.7 72.5C33.3 70 66.7 65 100 61.5C133.3 58 166.7 56 200 61C233.3 66 266.7 78 300 78.8C333.3 79.7 366.7 69.3 400 68.3C433.3 67.3 466.7 75.7 500 75.3C533.3 75 566.7 66 600 67C633.3 68 666.7 79 700 86.7C733.3 94.3 766.7 98.7 800 98.3C833.3 98 866.7 93 883.3 90.5L900 88L900 0L883.3 0C866.7 0 833.3 0 800 0C766.7 0 733.3 0 700 0C666.7 0 633.3 0 600 0C566.7 0 533.3 0 500 0C466.7 0 433.3 0 400 0C366.7 0 333.3 0 300 0C266.7 0 233.3 0 200 0C166.7 0 133.3 0 100 0C66.7 0 33.3 0 16.7 0L0 0Z" fill="#C6283D" stroke-linecap="round" stroke-linejoin="miter"></path></svg>