<svg width="28" height="28" viewBox="0 0 28 28" fill="none" xmlns="http://www.w3.org/2000/svg">
<g opacity="0.5">
<path fill-rule="evenodd" clip-rule="evenodd" d="M21.6244 7.34835C20.198 6.71455 18.6927 6.26245 17.1461 6.00337C17.1321 6.00108 17.1177 6.00305 17.1049 6.00901C17.0921 6.01497 17.0815 6.02461 17.0746 6.03662C16.8807 6.36921 16.6662 6.80424 16.5163 7.14481C14.8493 6.90024 13.1537 6.90024 11.4866 7.14481C11.3201 6.7651 11.131 6.39509 10.9201 6.03662C10.9132 6.02461 10.9026 6.01497 10.8898 6.00901C10.877 6.00305 10.8626 6.00108 10.8486 6.00337C9.30177 6.26145 7.79616 6.71377 6.3703 7.34835C6.35804 7.35276 6.3478 7.36125 6.34142 7.3723C3.4897 11.4951 2.70734 15.5167 3.09096 19.4878C3.09371 19.5073 3.10333 19.5237 3.11983 19.537C4.78077 20.7267 6.6381 21.6353 8.6129 22.2244C8.62684 22.2286 8.64183 22.2285 8.65568 22.2239C8.66952 22.2194 8.68151 22.2107 8.6899 22.1991C9.11431 21.6403 9.48923 21.051 9.81464 20.431C9.8214 20.4183 9.82372 20.4037 9.82124 20.3896C9.81876 20.3754 9.81162 20.3624 9.80089 20.3526L9.77614 20.3379C9.18401 20.117 8.61033 19.8524 8.06016 19.5464C8.0448 19.5379 8.03338 19.5241 8.02826 19.5078C8.02314 19.4914 8.02471 19.4738 8.03266 19.4586L8.05328 19.4333C8.1697 19.349 8.28336 19.2625 8.39428 19.1739C8.404 19.1663 8.41565 19.1614 8.42801 19.1598C8.44036 19.1582 8.45294 19.1598 8.4644 19.1645C12.0655 20.7556 15.9636 20.7556 19.5207 19.1645C19.5325 19.1593 19.5456 19.1573 19.5585 19.159C19.5714 19.1606 19.5835 19.1658 19.5935 19.1739C19.7045 19.2625 19.8181 19.349 19.9345 19.4333C19.9442 19.4397 19.952 19.4484 19.9573 19.4585C19.9625 19.4687 19.9649 19.48 19.9644 19.4913C19.9638 19.5026 19.9603 19.5136 19.9541 19.5233C19.9479 19.5329 19.9393 19.5409 19.929 19.5464C19.3812 19.8572 18.8066 20.1216 18.2117 20.3366C18.2022 20.3399 18.1936 20.3452 18.1865 20.3521C18.1793 20.359 18.1739 20.3673 18.1704 20.3765C18.1671 20.3854 18.1657 20.3948 18.1664 20.4042C18.1671 20.4136 18.1699 20.4228 18.1746 20.431C18.5045 21.0497 18.8827 21.6403 19.2979 22.1991C19.3063 22.2107 19.3183 22.2194 19.3321 22.2239C19.346 22.2285 19.361 22.2286 19.3749 22.2244C21.3536 21.6386 23.2142 20.7297 24.8762 19.537C24.8845 19.5314 24.8914 19.5241 24.8964 19.5156C24.9013 19.507 24.9043 19.4976 24.9051 19.4878C25.3643 14.8968 24.1365 10.9084 21.6519 7.37363C21.6497 7.36759 21.6461 7.36215 21.6413 7.35775C21.6365 7.35335 21.6307 7.35013 21.6244 7.34835ZM8.37503 14.9247C8.37503 16.1061 9.26739 17.0692 10.3523 17.0692C11.4536 17.0692 12.3295 16.1061 12.3295 14.9247C12.346 13.75 11.4619 12.7789 10.3523 12.7789C9.25089 12.7789 8.37503 13.7434 8.37503 14.9247ZM15.6845 14.9247C15.6845 16.1061 16.5782 17.0692 17.6617 17.0692C18.7713 17.0692 19.6389 16.1061 19.6389 14.9247C19.6568 13.75 18.7713 12.7789 17.6617 12.7789C16.5603 12.7789 15.6845 13.7434 15.6845 14.9247Z" fill="white"/>
</g>
</svg>
