<svg width="97" height="97" viewBox="0 0 97 97" fill="none" xmlns="http://www.w3.org/2000/svg">
<path d="M48.4999 0.1875L46.3942 6.66803L49.6345 7.72086L48.4999 0.1875Z" fill="#a1a1a1"/>
<path d="M48.4999 0.1875L50.6055 6.66803L47.3653 7.72086L48.4999 0.1875Z" fill="#a1a1a1"/>
<path d="M54.9803 4.896H48.1663V8.30301L54.9803 4.896Z" fill="#a1a1a1"/>
<path d="M54.9803 4.896L49.4677 8.90119L47.4651 6.14485L54.9803 4.896Z" fill="#a1a1a1"/>
<path d="M52.5052 12.5136L50.3996 6.03308L47.1593 7.0859L52.5052 12.5136Z" fill="#a1a1a1"/>
<path d="M52.5052 12.5136L46.9926 8.50842L48.9952 5.75208L52.5052 12.5136Z" fill="#a1a1a1"/>
<path d="M44.4946 12.5143L50.0073 8.50909L48.0047 5.75276L44.4946 12.5143Z" fill="#a1a1a1"/>
<path d="M44.4946 12.5143L46.6003 6.03375L49.8405 7.08657L44.4946 12.5143Z" fill="#a1a1a1"/>
<path d="M42.0192 4.896L47.5318 8.90119L49.5344 6.14485L42.0192 4.896Z" fill="#a1a1a1"/>
<path d="M42.0192 4.896H48.8332V8.30301L42.0192 4.896Z" fill="#a1a1a1"/>
<path d="M34.5381 81.1866H27.7241V84.5936L34.5381 81.1866Z" fill="#a1a1a1"/>
<path d="M34.5381 81.1866L29.0254 85.1918L27.0228 82.4354L34.5381 81.1866Z" fill="#a1a1a1"/>
<path d="M32.063 88.8051L29.9573 82.3246L26.7171 83.3774L32.063 88.8051Z" fill="#a1a1a1"/>
<path d="M32.063 88.8051L26.5503 84.7999L28.5529 82.0436L32.063 88.8051Z" fill="#a1a1a1"/>
<path d="M24.0522 88.8049L29.5649 84.7997L27.5623 82.0434L24.0522 88.8049Z" fill="#a1a1a1"/>
<path d="M24.0522 88.8049L26.1579 82.3244L29.3982 83.3772L24.0522 88.8049Z" fill="#a1a1a1"/>
<path d="M21.5769 81.1866L27.0896 85.1918L29.0922 82.4355L21.5769 81.1866Z" fill="#a1a1a1"/>
<path d="M21.5769 81.1866H28.3909V84.5937L21.5769 81.1866Z" fill="#a1a1a1"/>
<path d="M28.0576 76.4781L25.952 82.9587L29.1922 84.0115L28.0576 76.4781Z" fill="#a1a1a1"/>
<path d="M28.0576 76.4781L30.1633 82.9587L26.923 84.0115L28.0576 76.4781Z" fill="#a1a1a1"/>
<path d="M19.5737 66.2219H12.7597V69.6289L19.5737 66.2219Z" fill="#a1a1a1"/>
<path d="M19.5737 66.2219L14.0611 70.2271L12.0585 67.4707L19.5737 66.2219Z" fill="#a1a1a1"/>
<path d="M17.0979 73.8401L14.9922 67.3596L11.752 68.4124L17.0979 73.8401Z" fill="#a1a1a1"/>
<path d="M17.0979 73.8401L11.5852 69.835L13.5878 67.0786L17.0979 73.8401Z" fill="#a1a1a1"/>
<path d="M9.08789 73.8398L14.6006 69.8346L12.598 67.0783L9.08789 73.8398Z" fill="#a1a1a1"/>
<path d="M9.08789 73.8398L11.1935 67.3592L14.4338 68.4121L9.08789 73.8398Z" fill="#a1a1a1"/>
<path d="M6.61255 66.2216L12.1252 70.2267L14.1278 67.4704L6.61255 66.2216Z" fill="#a1a1a1"/>
<path d="M6.61255 66.2216H13.4266V69.6286L6.61255 66.2216Z" fill="#a1a1a1"/>
<path d="M13.0933 61.5133L10.9876 67.9938L14.2279 69.0467L13.0933 61.5133Z" fill="#a1a1a1"/>
<path d="M13.0933 61.5133L15.1989 67.9938L11.9586 69.0467L13.0933 61.5133Z" fill="#a1a1a1"/>
<path d="M89.3842 41.0711L87.2785 47.5516L90.5188 48.6045L89.3842 41.0711Z" fill="#a1a1a1"/>
<path d="M89.3842 41.0711L91.4898 47.5516L88.2495 48.6045L89.3842 41.0711Z" fill="#a1a1a1"/>
<path d="M95.8644 45.7796H89.0503V49.1866L95.8644 45.7796Z" fill="#a1a1a1"/>
<path d="M95.8644 45.7796L90.3517 49.7848L88.3491 47.0285L95.8644 45.7796Z" fill="#a1a1a1"/>
<path d="M93.3892 53.3978L91.2835 46.9173L88.0432 47.9701L93.3892 53.3978Z" fill="#a1a1a1"/>
<path d="M93.3892 53.3978L87.8765 49.3926L89.8791 46.6363L93.3892 53.3978Z" fill="#a1a1a1"/>
<path d="M85.3787 53.3986L90.8913 49.3934L88.8887 46.637L85.3787 53.3986Z" fill="#a1a1a1"/>
<path d="M85.3787 53.3986L87.4843 46.918L90.7246 47.9709L85.3787 53.3986Z" fill="#a1a1a1"/>
<path d="M82.9033 45.7796L88.416 49.7848L90.4186 47.0285L82.9033 45.7796Z" fill="#a1a1a1"/>
<path d="M82.9033 45.7796H89.7174V49.1866L82.9033 45.7796Z" fill="#a1a1a1"/>
<path d="M17.0984 32.9562L14.9927 26.4757L11.7525 27.5285L17.0984 32.9562Z" fill="#a1a1a1"/>
<path d="M17.0984 32.9562L11.5857 28.951L13.5883 26.1947L17.0984 32.9562Z" fill="#a1a1a1"/>
<path d="M9.08789 32.9565L14.6006 28.9513L12.598 26.195L9.08789 32.9565Z" fill="#a1a1a1"/>
<path d="M9.08789 32.9565L11.1935 26.4759L14.4338 27.5288L9.08789 32.9565Z" fill="#a1a1a1"/>
<path d="M6.61304 25.3374L12.1257 29.3426L14.1283 26.5863L6.61304 25.3374Z" fill="#a1a1a1"/>
<path d="M6.61304 25.3374H13.4271V28.7444L6.61304 25.3374Z" fill="#a1a1a1"/>
<path d="M13.0933 20.6296L10.9876 27.1101L14.2279 28.1629L13.0933 20.6296Z" fill="#a1a1a1"/>
<path d="M13.0933 20.6296L15.1989 27.1101L11.9586 28.1629L13.0933 20.6296Z" fill="#a1a1a1"/>
<path d="M19.5735 25.3377H12.7595V28.7447L19.5735 25.3377Z" fill="#a1a1a1"/>
<path d="M19.5735 25.3377L14.0608 29.3429L12.0582 26.5866L19.5735 25.3377Z" fill="#a1a1a1"/>
<path d="M24.0525 17.991L29.5652 13.9858L27.5626 11.2294L24.0525 17.991Z" fill="#a1a1a1"/>
<path d="M24.0525 17.991L26.1581 11.5104L29.3984 12.5633L24.0525 17.991Z" fill="#a1a1a1"/>
<path d="M21.5769 10.3724L27.0896 14.3776L29.0922 11.6213L21.5769 10.3724Z" fill="#a1a1a1"/>
<path d="M21.5769 10.3724H28.3909V13.7795L21.5769 10.3724Z" fill="#a1a1a1"/>
<path d="M28.0579 5.66449L25.9522 12.145L29.1925 13.1979L28.0579 5.66449Z" fill="#a1a1a1"/>
<path d="M28.0579 5.66449L30.1635 12.145L26.9232 13.1979L28.0579 5.66449Z" fill="#a1a1a1"/>
<path d="M34.5386 10.3734H27.7245V13.7804L34.5386 10.3734Z" fill="#a1a1a1"/>
<path d="M34.5386 10.3734L29.0259 14.3785L27.0233 11.6222L34.5386 10.3734Z" fill="#a1a1a1"/>
<path d="M32.063 17.9909L29.9573 11.5104L26.7171 12.5632L32.063 17.9909Z" fill="#a1a1a1"/>
<path d="M32.063 17.9909L26.5503 13.9857L28.5529 11.2294L32.063 17.9909Z" fill="#a1a1a1"/>
<path d="M48.4999 81.9563L46.3942 88.4368L49.6345 89.4897L48.4999 81.9563Z" fill="#a1a1a1"/>
<path d="M48.4999 81.9563L50.6055 88.4368L47.3653 89.4897L48.4999 81.9563Z" fill="#a1a1a1"/>
<path d="M54.9803 86.6645H48.1663V90.0715L54.9803 86.6645Z" fill="#a1a1a1"/>
<path d="M54.9803 86.6645L49.4677 90.6697L47.4651 87.9133L54.9803 86.6645Z" fill="#a1a1a1"/>
<path d="M52.505 94.2823L50.3994 87.8018L47.1591 88.8546L52.505 94.2823Z" fill="#a1a1a1"/>
<path d="M52.505 94.2823L46.9923 90.2771L48.9949 87.5208L52.505 94.2823Z" fill="#a1a1a1"/>
<path d="M44.4948 94.2834L50.0074 90.2782L48.0048 87.5219L44.4948 94.2834Z" fill="#a1a1a1"/>
<path d="M44.4948 94.2834L46.6004 87.8029L49.8407 88.8557L44.4948 94.2834Z" fill="#a1a1a1"/>
<path d="M42.0192 86.6646L47.5318 90.6697L49.5344 87.9134L42.0192 86.6646Z" fill="#a1a1a1"/>
<path d="M42.0192 86.6646H48.8332V90.0716L42.0192 86.6646Z" fill="#a1a1a1"/>
<path d="M62.4612 81.1873H69.2752V84.5943L62.4612 81.1873Z" fill="#a1a1a1"/>
<path d="M62.4612 81.1873L67.9739 85.1925L69.9764 82.4362L62.4612 81.1873Z" fill="#a1a1a1"/>
<path d="M64.9373 88.8052L67.0429 82.3247L70.2832 83.3775L64.9373 88.8052Z" fill="#a1a1a1"/>
<path d="M64.9373 88.8052L70.4499 84.8L68.4473 82.0437L64.9373 88.8052Z" fill="#a1a1a1"/>
<path d="M72.947 88.8062L67.4343 84.801L69.4369 82.0447L72.947 88.8062Z" fill="#a1a1a1"/>
<path d="M72.947 88.8062L70.8414 82.3257L67.6011 83.3785L72.947 88.8062Z" fill="#a1a1a1"/>
<path d="M75.4227 81.1871L69.9101 85.1923L67.9075 82.4359L75.4227 81.1871Z" fill="#a1a1a1"/>
<path d="M75.4227 81.1871H68.6087V84.5941L75.4227 81.1871Z" fill="#a1a1a1"/>
<path d="M68.9421 76.4785L71.0478 82.959L67.8075 84.0118L68.9421 76.4785Z" fill="#a1a1a1"/>
<path d="M68.9421 76.4785L66.8365 82.959L70.0768 84.0118L68.9421 76.4785Z" fill="#a1a1a1"/>
<path d="M77.4263 66.2219H84.2403V69.6289L77.4263 66.2219Z" fill="#a1a1a1"/>
<path d="M77.4263 66.2219L82.9389 70.2271L84.9415 67.4707L77.4263 66.2219Z" fill="#a1a1a1"/>
<path d="M79.9019 73.8401L82.0075 67.3596L85.2478 68.4124L79.9019 73.8401Z" fill="#a1a1a1"/>
<path d="M79.9019 73.8401L85.4145 69.8349L83.4119 67.0786L79.9019 73.8401Z" fill="#a1a1a1"/>
<path d="M87.9119 73.8398L82.3992 69.8346L84.4018 67.0783L87.9119 73.8398Z" fill="#a1a1a1"/>
<path d="M87.9119 73.8398L85.8062 67.3592L82.5659 68.4121L87.9119 73.8398Z" fill="#a1a1a1"/>
<path d="M90.3875 66.2216L84.8748 70.2267L82.8722 67.4704L90.3875 66.2216Z" fill="#a1a1a1"/>
<path d="M90.3875 66.2216H83.5734V69.6286L90.3875 66.2216Z" fill="#a1a1a1"/>
<path d="M83.9066 61.5133L86.0123 67.9938L82.772 69.0467L83.9066 61.5133Z" fill="#a1a1a1"/>
<path d="M83.9066 61.5133L81.801 67.9938L85.0412 69.0467L83.9066 61.5133Z" fill="#a1a1a1"/>
<path d="M7.61597 41.0711L9.72162 47.5516L6.48135 48.6045L7.61597 41.0711Z" fill="#a1a1a1"/>
<path d="M7.61597 41.0711L5.51031 47.5516L8.75058 48.6045L7.61597 41.0711Z" fill="#a1a1a1"/>
<path d="M1.13525 45.7796H7.94929V49.1866L1.13525 45.7796Z" fill="#a1a1a1"/>
<path d="M1.13525 45.7796L6.64793 49.7848L8.65052 47.0285L1.13525 45.7796Z" fill="#a1a1a1"/>
<path d="M3.6106 53.3978L5.71625 46.9173L8.95652 47.9701L3.6106 53.3978Z" fill="#a1a1a1"/>
<path d="M3.6106 53.3978L9.12327 49.3926L7.12067 46.6363L3.6106 53.3978Z" fill="#a1a1a1"/>
<path d="M11.6208 53.3988L6.10818 49.3936L8.11077 46.6373L11.6208 53.3988Z" fill="#a1a1a1"/>
<path d="M11.6208 53.3988L9.5152 46.9183L6.27493 47.9711L11.6208 53.3988Z" fill="#a1a1a1"/>
<path d="M14.0964 45.7796L8.58376 49.7848L6.58117 47.0285L14.0964 45.7796Z" fill="#a1a1a1"/>
<path d="M14.0964 45.7796H7.2824V49.1866L14.0964 45.7796Z" fill="#a1a1a1"/>
<path d="M79.9015 32.9554L82.0071 26.4748L85.2474 27.5277L79.9015 32.9554Z" fill="#a1a1a1"/>
<path d="M79.9015 32.9554L85.4142 28.9502L83.4116 26.1939L79.9015 32.9554Z" fill="#a1a1a1"/>
<path d="M87.9117 32.9554L82.3991 28.9503L84.4017 26.1939L87.9117 32.9554Z" fill="#a1a1a1"/>
<path d="M87.9117 32.9554L85.8061 26.4749L82.5658 27.5277L87.9117 32.9554Z" fill="#a1a1a1"/>
<path d="M90.3871 25.3369L84.8744 29.3421L82.8718 26.5858L90.3871 25.3369Z" fill="#a1a1a1"/>
<path d="M90.3871 25.3369H83.573V28.7439L90.3871 25.3369Z" fill="#a1a1a1"/>
<path d="M83.9062 20.629L86.0119 27.1095L82.7716 28.1623L83.9062 20.629Z" fill="#a1a1a1"/>
<path d="M83.9062 20.629L81.8006 27.1095L85.0409 28.1623L83.9062 20.629Z" fill="#a1a1a1"/>
<path d="M77.426 25.3372H84.2401V28.7442L77.426 25.3372Z" fill="#a1a1a1"/>
<path d="M77.426 25.3372L82.9387 29.3424L84.9413 26.5861L77.426 25.3372Z" fill="#a1a1a1"/>
<path d="M72.9476 17.9911L67.435 13.9859L69.4376 11.2296L72.9476 17.9911Z" fill="#a1a1a1"/>
<path d="M72.9476 17.9911L70.842 11.5106L67.6017 12.5634L72.9476 17.9911Z" fill="#a1a1a1"/>
<path d="M75.423 10.3726L69.9103 14.3777L67.9077 11.6214L75.423 10.3726Z" fill="#a1a1a1"/>
<path d="M75.423 10.3726H68.6089V13.7796L75.423 10.3726Z" fill="#a1a1a1"/>
<path d="M68.9424 5.66461L71.048 12.1451L67.8078 13.198L68.9424 5.66461Z" fill="#a1a1a1"/>
<path d="M68.9424 5.66461L66.8367 12.1451L70.077 13.198L68.9424 5.66461Z" fill="#a1a1a1"/>
<path d="M62.4619 10.3735H69.2759V13.7805L62.4619 10.3735Z" fill="#a1a1a1"/>
<path d="M62.4619 10.3735L67.9746 14.3787L69.9772 11.6223L62.4619 10.3735Z" fill="#a1a1a1"/>
<path d="M64.937 17.991L67.0427 11.5105L70.2829 12.5633L64.937 17.991Z" fill="#a1a1a1"/>
<path d="M64.937 17.991L70.4497 13.9858L68.4471 11.2295L64.937 17.991Z" fill="#a1a1a1"/>
</svg>
