<?xml version="1.0" encoding="UTF-8"?>
<svg width="60" height="60" version="1.1" xmlns="http://www.w3.org/2000/svg" transform="scale(0.85)">
 <g transform="matrix(.89089 0 0 .89089 -2448.3 -532.77)" opacity="0.5" fill="white" stroke-width="1.1225">
  <g transform="matrix(1.7622 0 0 1.7622 2470.4 445.42)">
   <circle cx="166.69" cy="95.647" r="9.0478" stroke-width=".63698"/>
   <rect x="158.75" y="108.33" width="15.875" height="15.875" rx="4.2333" ry="4.2333" stroke-width=".63698"/>
   <path  transform="matrix(.91132 .52615 .52615 -.91132 101.23 110.53)" d="m69.514 58.833h-1.7806-10.247a2.4441 2.4441 60 0 1-2.1167-3.6662l6.0139-10.416a2.4441 2.4441 2.522e-7 0 1 4.2333 0l6.0139 10.416a2.4441 2.4441 120 0 1-2.1167 3.6662z" stroke-width=".60953"/>
   <path transform="rotate(90)" d="m116.31-194.99c0.87946 0 1.5875 0.70801 1.5875 1.5875v12.7c0 0.87946-0.70802 1.5875-1.5875 1.5875s-1.5875-0.70802-1.5875-1.5875v-12.7c0-0.87946 0.70801-1.5875 1.5875-1.5875zm-7.9375 7.9375c0-0.87946 0.70802-1.5875 1.5875-1.5875h12.7c0.87946 0 1.5875 0.70802 1.5875 1.5875 0 0.87947-0.70802 1.5875-1.5875 1.5875h-12.7c-0.87947 0-1.5875-0.70802-1.5875-1.5875z" stroke-width="6.3698"/>
  </g>
 </g>
</svg>