<svg width="97" height="97" viewBox="0 0 97 97" fill="none" xmlns="http://www.w3.org/2000/svg">
<path d="M63.1899 68.3947V27.3471H72.6895V68.3947H63.1899Z" fill="#a1a1a1"/>
<path d="M12.8999 68.3947L31.1954 27.3471H40.5777L58.9318 68.3947H48.9631L33.9515 32.1555H37.7044L22.634 68.3947H12.8999ZM22.0477 59.5988L24.5691 52.3861H45.6793L48.2595 59.5988H22.0477Z" fill="#a1a1a1"/>
<path d="M4.88577 31.603C5.98175 28.6926 9.09564 27.1328 12.0395 27.9173L12.3239 28.0007L12.3756 28.018L12.5706 28.0863L88.7393 56.7697L88.9304 56.8461L88.9863 56.8701C91.8986 58.1387 93.3332 61.4802 92.2019 64.4843C91.0706 67.4885 87.7882 69.0537 84.7626 68.0861C84.7433 68.0799 84.7238 68.074 84.7047 68.0673L84.5107 67.9986L8.342 39.3152L8.15048 39.2379L8.10016 39.2167C5.18876 37.948 3.75445 34.6072 4.88577 31.603Z" fill="#a1a1a1" stroke="#252525" stroke-width="4" stroke-linecap="round" stroke-linejoin="round"/>
</svg>
