<svg width="28" height="28" viewBox="0 0 28 28" fill="none" xmlns="http://www.w3.org/2000/svg">
<g opacity="0.5">
<path fill-rule="evenodd" clip-rule="evenodd" d="M23.3755 11.2142C22.6659 11.2142 22.0194 11.492 21.5463 11.9422C19.7419 10.6587 17.2661 9.82543 14.5155 9.71791L15.7185 4.11571L19.6338 4.94899C19.6509 5.31249 19.775 5.66298 19.9907 5.95702C20.2063 6.25105 20.504 6.4757 20.8468 6.60312C21.1896 6.73054 21.5625 6.75512 21.9192 6.67382C22.2759 6.59252 22.6008 6.40891 22.8536 6.14575C23.1064 5.8826 23.2759 5.55146 23.3412 5.1934C23.4065 4.83534 23.3647 4.46609 23.221 4.13143C23.0772 3.79676 22.8379 3.5114 22.5326 3.31072C22.2273 3.11003 21.8695 3.00284 21.5035 3.00244C21.1535 3.00366 20.8108 3.10256 20.5145 3.28789C20.2182 3.47322 19.9802 3.73753 19.8275 4.05075L15.4617 3.13236C15.4029 3.1194 15.3422 3.11827 15.283 3.12904C15.2238 3.13981 15.1673 3.16227 15.117 3.19508C15.0658 3.22925 15.0221 3.27353 14.9888 3.32516C14.9555 3.37679 14.9332 3.43468 14.9233 3.49524L13.5897 9.74031C10.7963 9.82543 8.27771 10.6587 6.44849 11.9624C5.97542 11.5144 5.33114 11.2366 4.62378 11.2366C4.02389 11.2357 3.44186 11.4396 2.97495 11.8141C2.50804 12.1886 2.18453 12.7111 2.05847 13.2943C1.93242 13.8775 2.01145 14.486 2.28238 15.0182C2.5533 15.5504 2.99969 15.9741 3.54697 16.2183C3.50192 16.4722 3.48014 16.7358 3.48164 17.0091C3.48164 21.0298 8.19211 24.3024 13.9997 24.3024C19.8072 24.3024 24.5154 21.0522 24.5154 17.0091C24.5154 16.7537 24.4929 16.4759 24.4501 16.2183C25.3534 15.8129 26 14.8923 26 13.8238C26 12.3678 24.8173 11.2142 23.3755 11.2142ZM9.28166 13.8959C9.50851 13.8024 9.75165 13.7544 9.99719 13.7544C10.4821 13.7711 10.9416 13.9744 11.2787 14.3215C11.6159 14.6685 11.8043 15.1322 11.8043 15.6147C11.8043 16.0972 11.6159 16.5608 11.2787 16.9079C10.9416 17.2549 10.4821 17.4582 9.99719 17.475C8.96543 17.4951 8.12742 16.6417 8.12742 15.6135C8.12742 15.3694 8.17578 15.1276 8.26974 14.9021C8.36371 14.6765 8.50143 14.4715 8.67506 14.2989C8.84868 14.1263 9.05481 13.9893 9.28166 13.8959ZM18.6004 20.5549C17.3096 21.8385 14.8586 21.9236 14.149 21.9236V21.9213C13.4168 21.9213 10.9659 21.8161 9.69532 20.5549C9.64913 20.5105 9.61241 20.4572 9.58732 20.3983C9.56224 20.3395 9.54932 20.2762 9.54932 20.2122C9.54932 20.1483 9.56224 20.085 9.58732 20.0261C9.61241 19.9673 9.64913 19.914 9.69532 19.8695C9.74006 19.8236 9.79362 19.7871 9.85283 19.7621C9.91204 19.7372 9.97569 19.7243 10.04 19.7243C10.1043 19.7243 10.1679 19.7372 10.2271 19.7621C10.2864 19.7871 10.3399 19.8236 10.3847 19.8695C11.2024 20.6826 12.9212 20.9604 14.149 20.9604C15.3745 20.9604 17.1158 20.6826 17.911 19.8695C17.9558 19.8236 18.0093 19.7871 18.0686 19.7621C18.1278 19.7372 18.1914 19.7243 18.2557 19.7243C18.32 19.7243 18.3837 19.7372 18.4429 19.7621C18.5021 19.7871 18.5556 19.8236 18.6004 19.8695C18.6849 19.9639 18.7316 20.0858 18.7316 20.2122C18.7316 20.3386 18.6849 20.4606 18.6004 20.5549ZM18.2557 17.4951C17.224 17.4951 16.3837 16.6619 16.3837 15.6359H16.3859C16.4095 15.1586 16.6168 14.7086 16.9649 14.3791C17.3129 14.0496 17.7751 13.8658 18.2557 13.8658C18.7363 13.8658 19.1985 14.0496 19.5466 14.3791C19.8946 14.7086 20.1019 15.1586 20.1255 15.6359C20.1255 16.6417 19.2875 17.4951 18.2557 17.4951Z" fill="white"/>
</g>
</svg>
