<svg width="28" height="28" viewBox="0 0 28 28" fill="none" xmlns="http://www.w3.org/2000/svg">
<g opacity="0.5">
<path fill-rule="evenodd" clip-rule="evenodd" d="M14.7425 11.4974C14.7428 12.1696 15.0098 12.8141 15.4848 13.2896C15.9598 13.7651 16.6041 14.0327 17.2762 14.0337C17.9484 14.0327 18.5926 13.7651 19.0677 13.2896C19.5427 12.8141 19.8097 12.1696 19.81 11.4974C19.809 10.8258 19.5417 10.1819 19.0668 9.7069C18.5918 9.23195 17.9479 8.96468 17.2762 8.96369C16.6046 8.96468 15.9607 9.23195 15.4857 9.7069C15.0107 10.1819 14.7435 10.8258 14.7425 11.4974ZM18.0089 9.73418C17.7778 9.63829 17.5302 9.58885 17.28 9.58869C16.7748 9.58836 16.2901 9.78875 15.9326 10.1458C15.5751 10.5028 15.3741 10.9872 15.3737 11.4924C15.3734 11.9977 15.5738 12.4824 15.9308 12.8398C16.2878 13.1973 16.7722 13.3984 17.2775 13.3987C17.5277 13.3989 17.7754 13.3497 18.0066 13.2542C18.2378 13.1586 18.4479 13.0184 18.6249 12.8416C18.8019 12.6648 18.9424 12.4549 19.0382 12.2239C19.1341 11.9928 19.1836 11.7451 19.1837 11.4949C19.1839 11.2448 19.1348 10.997 19.0392 10.7658C18.9436 10.5346 18.8034 10.3245 18.6267 10.1475C18.4499 9.97052 18.24 9.83006 18.0089 9.73418Z" fill="white"/>
<path d="M10.085 19.8562C10.6058 20.055 11.1835 20.0431 11.6957 19.823C12.2079 19.603 12.6142 19.1921 12.8285 18.6775C13.0428 18.1629 13.0482 17.5851 12.8436 17.0665C12.639 16.548 12.2404 16.1296 11.7325 15.8999C11.229 15.6892 10.6637 15.6802 10.1537 15.8749L11.4325 16.4049C11.6237 16.4846 11.7974 16.6011 11.9436 16.7478C12.0898 16.8945 12.2057 17.0686 12.2846 17.2602C12.3636 17.4517 12.404 17.6569 12.4036 17.864C12.4033 18.0712 12.3621 18.2762 12.2825 18.4674C12.2029 18.6587 12.0864 18.8324 11.9396 18.9786C11.7929 19.1248 11.6188 19.2407 11.4273 19.3196C11.2358 19.3985 11.0306 19.439 10.8234 19.4386C10.6163 19.4382 10.4112 19.3971 10.22 19.3174L8.98249 18.8049C9.20769 19.2791 9.60041 19.6544 10.085 19.8562Z" fill="white"/>
<path d="M4.41123 16.9187C5.03847 18.9692 6.30746 20.7643 8.0314 22.0395C9.75534 23.3147 11.8431 24.0028 13.9875 24.0024C19.5175 24.0024 24 19.5249 24 14.0024C24 8.47994 19.5175 4.00244 13.9887 4.00244C11.4503 4.00146 9.0064 4.96514 7.15181 6.69835C5.29722 8.43156 4.17056 10.8048 3.99998 13.3374L4.00373 13.3449L9.38374 15.5562C9.86903 15.2351 10.4437 15.0762 11.025 15.1024L13.475 11.5474L13.4737 11.4974C13.4747 10.4891 13.8756 9.52241 14.5885 8.80932C15.3013 8.09623 16.2679 7.69502 17.2762 7.69369C18.2845 7.69502 19.2511 8.09623 19.964 8.80932C20.6768 9.52241 21.0777 10.4891 21.0787 11.4974C21.0784 12.0041 20.9769 12.5056 20.7803 12.9725C20.5837 13.4395 20.2958 13.8625 19.9337 14.2169C19.5716 14.5712 19.1424 14.8497 18.6712 15.0362C18.2001 15.2226 17.6965 15.3131 17.19 15.3024L13.685 17.8024C13.6969 18.2655 13.5928 18.7242 13.3822 19.1369C13.1717 19.5495 12.8613 19.9029 12.4793 20.165C12.0974 20.4271 11.656 20.5895 11.1952 20.6375C10.7345 20.6856 10.269 20.6176 9.84124 20.4399C9.43081 20.2686 9.06759 20.0011 8.78218 19.66C8.49676 19.3189 8.29752 18.9142 8.20124 18.4799L4.41249 16.9187H4.41123Z" fill="white"/>
</g>
</svg>
