<svg width="28" height="28" viewBox="0 0 28 28" fill="none" xmlns="http://www.w3.org/2000/svg">
<g opacity="0.5">
<path d="M21.9435 10.0347C22.7231 9.49707 23.4086 8.79814 24 7.93793C23.6236 8.09922 23.2406 8.23362 22.8508 8.34115C22.461 8.44868 22.0645 8.52932 21.6613 8.58309C22.5484 8.01857 23.1398 7.25244 23.4355 6.2847C22.629 6.79545 21.7688 7.13147 20.8548 7.29276C20.0484 6.43255 19.0403 6.00244 17.8306 6.00244C17.2661 6.00244 16.7352 6.10997 16.2379 6.32502C15.7406 6.54008 15.3105 6.83577 14.9476 7.21212C14.5847 7.58846 14.2957 8.02529 14.0806 8.5226C13.8656 9.01991 13.758 9.55083 13.758 10.1153C13.758 10.2766 13.7648 10.4312 13.7782 10.5791C13.7917 10.7269 13.8118 10.8815 13.8387 11.0428C12.1451 10.9621 10.5726 10.5387 9.12095 9.7726C7.66934 9.00647 6.43278 8.00513 5.41128 6.76857C5.03493 7.38685 4.84676 8.07233 4.84676 8.82502C4.84676 9.52395 5.01477 10.1691 5.35079 10.7605C5.68681 11.3519 6.12364 11.8358 6.66128 12.2121C6.33869 12.2121 6.02283 12.1651 5.71369 12.071C5.40455 11.9769 5.10214 11.8627 4.80644 11.7282V11.7686C4.80644 12.7632 5.1223 13.6301 5.75402 14.3694C6.38574 15.1086 7.17203 15.5858 8.11289 15.8008C7.73654 15.8815 7.37364 15.9218 7.02418 15.9218H6.64111L6.25805 15.8412C6.52687 16.6745 7.00402 17.3532 7.6895 17.8774C8.37498 18.4016 9.17472 18.6772 10.0887 18.7041C9.38977 19.2417 8.60348 19.6718 7.72982 19.9944C6.85617 20.317 5.94891 20.4782 5.00805 20.4782C4.81988 20.4782 4.64515 20.4715 4.48386 20.4581C4.32257 20.4446 4.16128 20.4245 3.99998 20.3976C4.91396 20.989 5.90187 21.446 6.96369 21.7686C8.02552 22.0912 9.13439 22.2524 10.2903 22.2524C12.172 22.2524 13.8387 21.8963 15.2903 21.1839C16.7419 20.4715 17.9583 19.5575 18.9395 18.442C19.9207 17.3264 20.6667 16.0764 21.1774 14.692C21.6882 13.3076 21.9435 11.9299 21.9435 10.5589V10.0347Z" fill="white"/>
</g>
</svg>
