<svg width="97" height="97" viewBox="0 0 97 97" fill="none" xmlns="http://www.w3.org/2000/svg">
<path d="M75.86 49.0669L82.74 42.2269H82.66C86.3425 38.4111 88.3603 33.2898 88.2703 27.9876C88.1803 22.6854 85.9899 17.6356 82.18 13.9469C78.4478 10.3477 73.465 8.33645 68.28 8.33645C63.095 8.33645 58.1122 10.3477 54.38 13.9469L47.5 20.7869M21.18 47.0669L14.34 53.9069C10.6575 57.7227 8.6397 62.844 8.7297 68.1462C8.81969 73.4484 11.0101 78.4982 14.82 82.1869C18.5522 85.7861 23.535 87.7973 28.72 87.7973C33.905 87.7973 38.8878 85.7861 42.62 82.1869L49.46 75.3469M32.5 8.06689V20.0669M8.5 32.0669H20.5M64.5 76.0669V88.0669M76.5 64.0669H88.5" stroke="#CA1B3D" stroke-width="8" stroke-linecap="round" stroke-linejoin="round"/>
</svg>
