<svg width="97" height="97" viewBox="0 0 97 97" fill="none" xmlns="http://www.w3.org/2000/svg">
<path d="M8.5 84.0669C8.49966 77.9082 10.2765 71.8802 13.6174 66.7064C16.9582 61.5326 21.7211 57.4328 27.3344 54.8989C32.9477 52.3651 39.1729 51.5049 45.263 52.4216C51.3531 53.3383 57.0493 55.9929 61.668 60.0669M64.5 76.0669L72.5 84.0669L88.5 68.0669M60.5 32.0669C60.5 43.1126 51.5457 52.0669 40.5 52.0669C29.4543 52.0669 20.5 43.1126 20.5 32.0669C20.5 21.0212 29.4543 12.0669 40.5 12.0669C51.5457 12.0669 60.5 21.0212 60.5 32.0669Z" stroke="#87D33B" stroke-width="8" stroke-linecap="round" stroke-linejoin="round"/>
</svg>
