<svg width="28" height="28" viewBox="0 0 28 28" fill="none" xmlns="http://www.w3.org/2000/svg">
<g opacity="0.5">
<path fill-rule="evenodd" clip-rule="evenodd" d="M14.0644 7.00244H14.1756C15.2032 7.00634 20.4098 7.04531 21.8136 7.43758C22.238 7.5573 22.6247 7.79065 22.9351 8.11433C23.2455 8.438 23.4687 8.84065 23.5825 9.28204C23.7087 9.77563 23.7975 10.429 23.8575 11.1031L23.87 11.2382L23.8975 11.5759L23.9075 11.711C23.9887 12.8982 23.9987 14.0101 24 14.253V14.3504C23.9987 14.6024 23.9875 15.7896 23.8975 17.0262L23.8875 17.1626L23.8762 17.2977C23.8137 18.0406 23.7212 18.7784 23.5825 19.3214C23.4687 19.7628 23.2455 20.1654 22.9351 20.4891C22.6247 20.8128 22.238 21.0461 21.8136 21.1658C20.3635 21.5711 14.8519 21.5997 14.0881 21.601H13.9106C13.5243 21.601 11.9267 21.5932 10.2516 21.5334L10.0391 21.5256L9.93036 21.5204L9.50283 21.5023C8.11524 21.4386 6.79391 21.336 6.18512 21.1645C5.76088 21.0449 5.37426 20.8118 5.06387 20.4883C4.75347 20.1649 4.53017 19.7625 4.41626 19.3214C4.2775 18.7797 4.185 18.0406 4.12249 17.2977L4.10249 17.0262C4.04044 16.1461 4.00625 15.2641 3.99998 14.3816V14.2218C4.00248 13.9426 4.01249 12.9775 4.07999 11.9124L4.08874 11.7786L4.09249 11.711L4.10249 11.5759L4.12999 11.2382L4.14249 11.1031C4.2025 10.429 4.29125 9.77433 4.41751 9.28204C4.53123 8.84065 4.75445 8.438 5.06485 8.11433C5.37526 7.79065 5.76198 7.5573 6.18637 7.43758C6.79516 7.26872 8.11649 7.16481 9.50408 7.09986L9.71659 7.09077L10.0391 7.07908L10.2529 7.06999C11.4426 7.03024 12.6328 7.00816 13.8231 7.00374L14.0644 7.00244ZM12.0005 17.4302V11.172L17.1971 14.3024L12.0005 17.4302Z" fill="white"/>
</g>
</svg>
