<!-- Created with PixiEditor (https://pixieditor.net) -->
<svg version="1.1" viewBox="0 0 750 724" xmlns="http://www.w3.org/2000/svg">
  <g>
    <g>
      <path d="M476.739 603.757L521.405 648.423C538.941 665.959 567.372 665.959 584.908 648.423L631.698 601.633L755.589 725.524L598.077 883.036C573.268 907.845 533.045 907.845 508.236 883.036L352.848 727.648L476.739 603.757Z" fill-rule="nonzero" transform="matrix(1, 0, 0, 1, -165.19998, -178.35724)" fill="url(#linearGradient0)" stroke="#ffffff" stroke-width="0" stroke-linecap="butt" stroke-linejoin="round" />
      <path d="M623.244 610.087L661.579 571.751C679.115 554.216 679.115 525.784 661.579 508.249L617.621 464.291L741.513 340.399L896.192 495.079C921.001 519.888 921.001 560.112 896.192 584.921L747.135 733.978L623.244 610.087L623.244 610.087Z" fill-rule="nonzero" transform="matrix(1, 0, 0, 1, -165.19998, -178.35724)" fill="url(#linearGradient1)" stroke="#ffffff" stroke-width="0" stroke-linecap="butt" stroke-linejoin="round" />
      <path d="M623.244 469.913L584.908 431.577C567.372 414.041 538.941 414.041 521.405 431.577L473.825 479.158L349.934 355.266L508.236 196.964C533.045 172.155 573.268 172.155 598.077 196.964L747.135 346.022L623.244 469.913L623.244 469.913Z" fill-rule="nonzero" transform="matrix(1, 0, 0, 1, -165.19998, -178.35724)" fill="url(#linearGradient2)" stroke="#ffffff" stroke-width="0" stroke-linecap="butt" stroke-linejoin="round" />
      <path d="M483.069 610.087L210.119 883.037C198.206 894.95 182.048 901.643 165.201 901.643L165.2 566.314C165.2 549.465 171.893 533.307 183.807 521.393L359.178 346.022L483.069 469.913L444.734 508.249C427.198 525.784 427.198 554.216 444.734 571.751L483.069 610.087L483.069 610.087Z" fill-rule="nonzero" transform="matrix(1, 0, 0, 1, -165.19998, -178.35724)" fill="url(#linearGradient3)" stroke="#ffffff" stroke-width="0" stroke-linecap="butt" stroke-linejoin="round" />
    </g>
  </g>
  <defs>
    <linearGradient gradientTransform="matrix(-175.572, -175.572, 175.572, -175.572, 553.156, 765.128)" x1="0" y1="0" x2="1" y2="0" gradientUnits="userSpaceOnUse" id="linearGradient0">
      <stop stop-color="#df002c" offset="0%" stop-opacity="1" />
      <stop stop-color="#7f0019" offset="100%" stop-opacity="1" />
    </linearGradient>
    <linearGradient gradientTransform="matrix(-311.942, 336.954, -336.954, -311.942, 851.942, 450.828)" x1="0" y1="0" x2="1" y2="0" gradientUnits="userSpaceOnUse" id="linearGradient1">
      <stop stop-color="#cb1133" offset="0%" stop-opacity="1" />
      <stop stop-color="#7d0017" offset="100%" stop-opacity="1" />
    </linearGradient>
    <linearGradient gradientTransform="matrix(392.877, 383.037, -383.037, 392.877, 452.682, 252.518)" x1="0" y1="0" x2="1" y2="0" gradientUnits="userSpaceOnUse" id="linearGradient2">
      <stop stop-color="#bd0625" offset="0%" stop-opacity="1" />
      <stop stop-color="#690012" offset="100%" stop-opacity="1" />
    </linearGradient>
    <linearGradient gradientTransform="matrix(512.942, -512.942, 478.15, 478.15, 165.2, 810.864)" x1="0" y1="0" x2="1" y2="0" gradientUnits="userSpaceOnUse" id="linearGradient3">
      <stop stop-color="#9b081f" offset="0%" stop-opacity="1" />
      <stop stop-color="#4f000c" offset="100%" stop-opacity="1" />
    </linearGradient>
  </defs>
</svg>