<svg width="165" height="200" viewBox="0 0 165 200" fill="none" xmlns="http://www.w3.org/2000/svg">
<path d="M16.7145 3.98466C16.907 1.78393 18.8472 0.155962 21.0479 0.348501L160.515 12.5503C162.716 12.7428 164.344 14.683 164.151 16.8837L148.55 195.203C148.358 197.403 146.418 199.031 144.217 198.839L4.74976 186.637C2.54903 186.444 0.92107 184.504 1.11361 182.304L16.7145 3.98466Z" fill="#252525"/>
<path d="M29.1571 165.684L29.9502 156.619L33.6411 156.942C34.6081 157.027 35.4372 157.295 36.1284 157.747C36.8291 158.191 37.3524 158.772 37.6985 159.489C38.0446 160.207 38.1788 161.01 38.101 161.9C38.0232 162.789 37.7516 163.557 37.2861 164.203C36.8207 164.85 36.204 165.335 35.4362 165.66C34.6777 165.976 33.815 166.092 32.848 166.007L29.1571 165.684ZM30.1879 164.939L32.8687 165.174C33.6716 165.244 34.3802 165.15 34.9945 164.89C35.6182 164.623 36.1183 164.227 36.4947 163.703C36.8719 163.171 37.0922 162.542 37.1556 161.817C37.2198 161.083 37.1121 160.425 36.8323 159.844C36.5526 159.263 36.1284 158.791 35.5599 158.428C35.0008 158.057 34.3197 157.837 33.5168 157.766L30.836 157.532L30.1879 164.939ZM41.1497 161.683L45.9414 162.103L45.87 162.919L41.0783 162.499L41.1497 161.683ZM40.8873 165.876L46.3395 166.353L46.267 167.181L39.8565 166.621L40.6496 157.555L46.8658 158.099L46.7933 158.928L41.5354 158.468L40.8873 165.876ZM51.0123 167.675C50.3389 167.616 49.7008 167.451 49.0981 167.181C48.5047 166.903 48.0548 166.577 47.7483 166.202L48.1884 165.496C48.4807 165.835 48.885 166.136 49.4014 166.399C49.9272 166.653 50.488 166.807 51.0837 166.859C51.6535 166.909 52.1215 166.88 52.4875 166.773C52.863 166.658 53.1433 166.487 53.3285 166.259C53.5223 166.033 53.6321 165.773 53.6578 165.479C53.6887 165.125 53.61 164.831 53.4217 164.597C53.242 164.364 52.9934 164.172 52.6759 164.023C52.3592 163.865 52.0064 163.721 51.6175 163.591C51.2287 163.461 50.8402 163.327 50.4521 163.189C50.0648 163.042 49.7107 162.863 49.3899 162.652C49.0777 162.442 48.8308 162.181 48.6493 161.87C48.4771 161.55 48.4122 161.149 48.4545 160.665C48.4938 160.216 48.6462 159.816 48.9118 159.466C49.1868 159.107 49.5802 158.837 50.0919 158.655C50.6044 158.465 51.2449 158.404 52.0133 158.471C52.5227 158.516 53.0213 158.633 53.5092 158.824C53.9979 159.006 54.4126 159.238 54.7533 159.52L54.3627 160.256C53.9968 159.963 53.599 159.736 53.1693 159.577C52.7482 159.418 52.3347 159.321 51.929 159.286C51.385 159.238 50.9297 159.272 50.5628 159.388C50.196 159.504 49.9153 159.679 49.7207 159.915C49.5355 160.142 49.4294 160.411 49.4022 160.722C49.3712 161.076 49.4456 161.37 49.6252 161.603C49.8136 161.837 50.0665 162.029 50.384 162.178C50.7101 162.328 51.0676 162.468 51.4565 162.598C51.8453 162.728 52.2291 162.866 52.6078 163.012C52.9951 163.159 53.3449 163.338 53.6571 163.548C53.9787 163.75 54.2259 164.006 54.3988 164.317C54.5804 164.629 54.6504 165.022 54.6088 165.497C54.5703 165.937 54.4135 166.337 54.1386 166.696C53.8643 167.046 53.4666 167.315 52.9455 167.505C52.4337 167.686 51.7893 167.743 51.0123 167.675ZM56.4873 168.076L57.2804 159.01L58.2387 159.094L57.4456 168.159L56.4873 168.076ZM64.3642 168.843C63.6735 168.783 63.0444 168.614 62.477 168.339C61.9189 168.055 61.4422 167.687 61.0468 167.235C60.66 166.783 60.3702 166.266 60.1776 165.684C59.9936 165.102 59.9307 164.479 59.9888 163.814C60.047 163.15 60.2172 162.547 60.4994 162.006C60.7902 161.466 61.1696 161.008 61.6375 160.631C62.1055 160.254 62.6385 159.979 63.2366 159.805C63.8441 159.624 64.4932 159.563 65.1839 159.623C65.8746 159.684 66.4954 159.847 67.0463 160.112C67.6059 160.379 68.0693 160.75 68.4366 161.226L67.7876 161.782C67.441 161.369 67.046 161.061 66.6028 160.857C66.1595 160.653 65.6746 160.528 65.1479 160.481C64.5868 160.432 64.0604 160.482 63.569 160.63C63.0869 160.771 62.6537 160.998 62.2695 161.313C61.8947 161.619 61.588 161.993 61.3494 162.433C61.1202 162.865 60.9818 163.353 60.9342 163.897C60.8874 164.432 60.9389 164.937 61.0888 165.411C61.2474 165.886 61.4842 166.312 61.7993 166.687C62.1239 167.055 62.5109 167.354 62.9605 167.585C63.4195 167.808 63.9253 167.943 64.4778 167.992C64.9959 168.037 65.4905 168.002 65.9616 167.887C66.4415 167.772 66.8919 167.546 67.3129 167.209L67.7933 167.982C67.3284 168.324 66.798 168.569 66.2022 168.717C65.6071 168.856 64.9945 168.898 64.3642 168.843ZM66.884 167.785L67.1764 164.443L68.0959 164.524L67.7933 167.982L66.884 167.785ZM70.4116 169.294L71.2047 160.228L71.9947 160.297L77.5609 168.719L77.1465 168.682L77.8354 160.808L78.7808 160.891L77.9877 169.957L77.1977 169.887L71.6444 161.467L72.0588 161.504L71.37 169.378L70.4116 169.294Z" fill="white"/>
<path d="M32.3374 144.882L34.2897 122.568L39.454 123.019L37.8698 141.126L49.0591 142.105L48.6909 146.313L32.3374 144.882ZM62.008 147.864C60.244 147.709 58.6327 147.279 57.174 146.574C55.7366 145.87 54.5108 144.949 53.4968 143.811C52.5041 142.674 51.7609 141.378 51.2673 139.921C50.795 138.467 50.6313 136.911 50.7763 135.253C50.9214 133.595 51.3528 132.091 52.0705 130.74C52.8096 129.392 53.7772 128.245 54.9734 127.3C56.1696 126.356 57.5367 125.662 59.0745 125.218C60.6124 124.774 62.2526 124.629 63.9953 124.781C65.7592 124.935 67.3493 125.364 68.7655 126.066C70.2029 126.77 71.418 127.69 72.4108 128.826C73.4248 129.964 74.1786 131.261 74.6722 132.718C75.1677 134.153 75.3419 135.71 75.1951 137.389C75.05 139.047 74.6071 140.561 73.8662 141.931C73.1272 143.279 72.1595 144.426 70.9633 145.371C69.7902 146.296 68.4347 146.981 66.8969 147.424C65.3803 147.87 63.7506 148.016 62.008 147.864ZM62.361 143.462C63.3598 143.549 64.2885 143.459 65.1471 143.192C66.027 142.926 66.8135 142.502 67.5069 141.92C68.2002 141.339 68.755 140.627 69.1713 139.785C69.6088 138.946 69.8741 137.994 69.967 136.932C70.06 135.869 69.964 134.886 69.6789 133.983C69.4151 133.082 68.9923 132.285 68.4105 131.592C67.85 130.9 67.1595 130.347 66.3392 129.933C65.5189 129.519 64.6093 129.268 63.6104 129.18C62.6116 129.093 61.6722 129.182 60.7924 129.448C59.9338 129.715 59.1579 130.14 58.4645 130.722C57.7712 131.303 57.2057 132.014 56.7682 132.854C56.3519 133.696 56.0973 134.648 56.0044 135.71C55.9133 136.752 55.9987 137.733 56.2606 138.656C56.5457 139.559 56.9685 140.356 57.529 141.047C58.1108 141.741 58.8118 142.295 59.6322 142.709C60.4525 143.123 61.3621 143.374 62.361 143.462ZM88.8415 150.211C87.0775 150.057 85.4759 149.639 84.0366 148.956C82.6204 148.254 81.4053 147.334 80.3913 146.196C79.3986 145.059 78.6554 143.763 78.1618 142.306C77.6894 140.852 77.5267 139.285 77.6736 137.606C77.8205 135.927 78.2528 134.412 78.9706 133.062C79.7096 131.713 80.6772 130.566 81.8735 129.622C83.0697 128.677 84.4358 127.994 85.9718 127.571C87.5096 127.127 89.1711 126.984 90.9563 127.14C92.9328 127.313 94.6785 127.797 96.1935 128.594C97.7298 129.392 98.985 130.466 99.9592 131.814L96.3761 134.585C95.6429 133.664 94.8158 132.96 93.8948 132.472C92.9756 131.964 91.9528 131.66 90.8265 131.561C89.7426 131.467 88.7395 131.55 87.8172 131.812C86.8948 132.074 86.0764 132.495 85.3618 133.075C84.6684 133.657 84.103 134.367 83.6655 135.207C83.2492 136.049 82.9946 137.001 82.9016 138.063C82.8105 139.105 82.8969 140.076 83.1607 140.977C83.4457 141.88 83.8782 142.689 84.4581 143.403C85.0612 144.099 85.7835 144.654 86.6251 145.071C87.4879 145.489 88.4506 145.744 89.5132 145.837C90.5334 145.927 91.5355 145.854 92.5198 145.618C93.5271 145.364 94.5221 144.884 95.5047 144.177L98.1112 148.163C96.8199 148.971 95.3453 149.549 93.6873 149.897C92.0507 150.246 90.4354 150.351 88.8415 150.211ZM93.4518 147.081L94.1853 138.697L98.9033 139.11L98.1112 148.163L93.4518 147.081ZM113.499 152.369C111.735 152.214 110.124 151.784 108.665 151.078C107.227 150.374 106.002 149.453 104.988 148.315C103.995 147.179 103.252 145.883 102.758 144.426C102.286 142.972 102.122 141.415 102.267 139.758C102.412 138.1 102.844 136.596 103.561 135.245C104.3 133.897 105.268 132.75 106.464 131.805C107.66 130.861 109.027 130.166 110.565 129.723C112.103 129.279 113.743 129.134 115.486 129.286C117.25 129.44 118.84 129.869 120.256 130.571C121.694 131.275 122.909 132.195 123.902 133.331C124.916 134.469 125.669 135.766 126.163 137.223C126.658 138.658 126.833 140.215 126.686 141.894C126.541 143.552 126.098 145.066 125.357 146.436C124.618 147.784 123.65 148.931 122.454 149.876C121.281 150.801 119.926 151.485 118.388 151.929C116.871 152.375 115.241 152.521 113.499 152.369ZM113.852 147.967C114.851 148.054 115.779 147.964 116.638 147.696C117.518 147.431 118.304 147.007 118.998 146.425C119.691 145.843 120.246 145.132 120.662 144.29C121.1 143.45 121.365 142.499 121.458 141.437C121.551 140.374 121.455 139.391 121.17 138.488C120.906 137.587 120.483 136.79 119.901 136.097C119.341 135.405 118.65 134.852 117.83 134.438C117.01 134.023 116.1 133.773 115.101 133.685C114.102 133.598 113.163 133.687 112.283 133.953C111.425 134.22 110.649 134.645 109.955 135.227C109.262 135.808 108.697 136.519 108.259 137.359C107.843 138.2 107.588 139.153 107.495 140.215C107.404 141.256 107.489 142.238 107.751 143.161C108.036 144.064 108.459 144.861 109.02 145.552C109.602 146.246 110.303 146.8 111.123 147.214C111.943 147.628 112.853 147.879 113.852 147.967Z" fill="white"/>
<path fill-rule="evenodd" clip-rule="evenodd" d="M77.4722 73.3605L82.2492 78.9236C84.1245 81.1076 87.4496 81.3985 89.6758 79.5733L95.6158 74.7032L108.865 90.1335L88.8694 106.528C85.7199 109.111 81.0158 108.699 78.3626 105.609L61.7444 86.2556L77.4722 73.3605Z" fill="url(#paint0_linear_1_50)"/>
<path fill-rule="evenodd" clip-rule="evenodd" d="M94.5432 75.5834L99.4099 71.5932C101.636 69.768 101.92 66.5177 100.045 64.3337L95.3437 58.8589L111.072 45.9635L127.614 65.2287C130.268 68.3186 129.865 72.9169 126.716 75.4991L107.793 91.0137L94.5432 75.5834Z" fill="url(#paint1_linear_1_50)"/>
<path fill-rule="evenodd" clip-rule="evenodd" d="M95.9447 59.5585L91.8447 54.7838C89.9693 52.5998 86.6443 52.3089 84.4181 54.1341L78.3778 59.0865L65.128 43.6562L85.2245 27.1791C88.3739 24.5969 93.0781 25.0085 95.7313 28.0983L111.673 46.6634L95.9447 59.5585Z" fill="url(#paint2_linear_1_50)"/>
<path fill-rule="evenodd" clip-rule="evenodd" d="M78.1492 74.149L43.4983 102.559C41.986 103.799 40.0293 104.399 38.059 104.226L41.4128 65.8925C41.5813 63.9666 42.5256 62.1879 44.0379 60.9477L66.3015 42.6943L79.5512 58.1246L74.6847 62.1148C72.4585 63.94 72.1741 67.1903 74.0495 69.3743L78.1492 74.149Z" fill="url(#paint3_linear_1_50)"/>
<defs>
<linearGradient id="paint0_linear_1_50" x1="84.7952" y1="92.5898" x2="66.5256" y2="70.3067" gradientUnits="userSpaceOnUse">
<stop stop-color="#DF002C"/>
<stop offset="1" stop-color="#7F0019"/>
</linearGradient>
<linearGradient id="paint1_linear_1_50" x1="122.882" y1="59.7174" x2="83.8526" y2="95.9309" gradientUnits="userSpaceOnUse">
<stop stop-color="#CB1133"/>
<stop offset="1" stop-color="#7D0017"/>
</linearGradient>
<linearGradient id="paint2_linear_1_50" x1="78.1719" y1="32.9615" x2="119.178" y2="81.7019" gradientUnits="userSpaceOnUse">
<stop stop-color="#BD0625"/>
<stop offset="1" stop-color="#690012"/>
</linearGradient>
<linearGradient id="paint3_linear_1_50" x1="38.9669" y1="93.8487" x2="102.836" y2="39.0052" gradientUnits="userSpaceOnUse">
<stop stop-color="#9B081F"/>
<stop offset="1" stop-color="#4F000C"/>
</linearGradient>
</defs>
</svg>
