<svg width="27" height="33" viewBox="0 0 27 33" fill="none" xmlns="http://www.w3.org/2000/svg">
<g id="Apple_logo_black 1" opacity="0.6" clip-path="url(#clip0_605_1158)">
<path id="Vector" d="M25.8182 11.4757C25.6307 11.6197 22.3208 13.4661 22.3208 17.5717C22.3208 22.3205 26.5325 24.0005 26.6586 24.0421C26.6392 24.1445 25.9895 26.3429 24.438 28.5829C23.0545 30.5541 21.6097 32.5221 19.4117 32.5221C17.2137 32.5221 16.6481 31.2581 14.1107 31.2581C11.638 31.2581 10.7588 32.5637 8.74828 32.5637C6.73777 32.5637 5.33494 30.7397 3.72202 28.4997C1.85373 25.8693 0.344238 21.7829 0.344238 17.9045C0.344238 11.6837 4.42989 8.38449 8.4509 8.38449C10.5875 8.38449 12.3685 9.7733 13.7099 9.7733C14.9867 9.7733 16.9778 8.30129 19.4085 8.30129C20.3297 8.30129 23.6396 8.38449 25.8182 11.4757ZM18.2545 5.66769C19.2598 4.48689 19.9709 2.84849 19.9709 1.21009C19.9709 0.982895 19.9515 0.752495 19.9095 0.566895C18.2739 0.627695 16.3281 1.64529 15.1547 2.99249C14.2335 4.02929 13.3737 5.6677 13.3737 7.3285C13.3737 7.57809 13.4157 7.82769 13.4351 7.90769C13.5386 7.92689 13.7067 7.94929 13.8747 7.94929C15.3422 7.94929 17.1879 6.97649 18.2545 5.66769Z" fill="white"/>
</g>
<defs>
<clipPath id="clip0_605_1158">
<rect width="26.3111" height="32" fill="white" transform="translate(0.344238 0.566895)"/>
</clipPath>
</defs>
</svg>
