<svg width="33" height="33" viewBox="0 0 33 33" fill="none" xmlns="http://www.w3.org/2000/svg">
<g id="windows-svgrepo-com" opacity="0.6" clip-path="url(#clip0_605_1150)">
<g id="XMLID_108_">
<path id="XMLID_109_" d="M15.1885 3.27115V15.5176C15.1885 15.6625 15.3059 15.7799 15.4508 15.7799H32.2336C32.3785 15.7799 32.4959 15.6625 32.4959 15.5176V0.82918C32.4959 0.75301 32.4628 0.680616 32.4052 0.63078C32.3477 0.580944 32.2714 0.558702 32.1958 0.569613L15.413 3.01158C15.2841 3.03036 15.1885 3.14094 15.1885 3.27115Z" fill="white"/>
<path id="XMLID_110_" d="M13.3527 29.9385C13.4157 29.9385 13.4771 29.9158 13.5252 29.8738C13.5822 29.824 13.615 29.7519 13.615 29.6762V17.6161C13.615 17.4712 13.4976 17.3538 13.3527 17.3538H0.772061C0.7025 17.3538 0.635772 17.3814 0.586566 17.4306C0.537359 17.4798 0.509766 17.5465 0.509766 17.6161L0.510395 27.9521C0.510395 28.0832 0.607234 28.1941 0.737018 28.2119L13.317 29.9362C13.3289 29.9376 13.3408 29.9385 13.3527 29.9385Z" fill="white"/>
<path id="XMLID_138_" d="M0.773731 15.7799H13.3526C13.4975 15.7799 13.6149 15.6625 13.6149 15.5176V3.57606C13.6149 3.50031 13.5821 3.42834 13.5252 3.3785C13.4682 3.32866 13.3929 3.30579 13.3173 3.31618L0.727043 5.02592C0.596839 5.04365 0.499895 5.15476 0.5 5.28612L0.511436 15.5178C0.511646 15.6626 0.629049 15.7799 0.773731 15.7799Z" fill="white"/>
<path id="XMLID_169_" d="M32.2336 32.5669C32.2964 32.5669 32.3576 32.5443 32.4056 32.5026C32.4629 32.4527 32.4959 32.3805 32.4959 32.3046L32.5001 17.6161C32.5001 17.5465 32.4725 17.4798 32.4233 17.4306C32.3741 17.3814 32.3073 17.3538 32.2378 17.3538H15.4508C15.3059 17.3538 15.1885 17.4712 15.1885 17.6161V29.9435C15.1885 30.0742 15.2848 30.185 15.4142 30.2033L32.1969 32.5644C32.2092 32.566 32.2214 32.5669 32.2336 32.5669Z" fill="white"/>
</g>
</g>
<defs>
<clipPath id="clip0_605_1150">
<rect width="32" height="32" fill="white" transform="translate(0.5 0.566895)"/>
</clipPath>
</defs>
</svg>
