<svg width="237" height="40" viewBox="0 0 237 40" fill="none" xmlns="http://www.w3.org/2000/svg">
<g id="opencollectivelogo-footer-n 1" clip-path="url(#clip0_449_562)">
<path id="Vector" fill-rule="evenodd" clip-rule="evenodd" d="M150.561 7.15186H153.005C153.054 7.15186 153.103 7.20205 153.154 7.30244V28.2832C153.154 28.3835 153.103 28.4337 153.005 28.4337H150.561C150.463 28.4337 150.412 28.3835 150.412 28.2832V7.30244C150.412 7.20205 150.463 7.15186 150.561 7.15186ZM197.515 13.6769H200.257C200.307 13.6769 200.406 13.7773 200.406 13.8275V16.287C200.406 16.3873 200.357 16.4376 200.257 16.4376H197.515C197.466 16.4376 197.415 16.4878 197.415 16.5379V28.2832C197.415 28.3835 197.366 28.4337 197.266 28.4337H194.824C194.724 28.4337 194.674 28.3835 194.674 28.2832V16.5379C194.674 16.4878 194.625 16.4376 194.574 16.4376H191.883C191.784 16.4376 191.733 16.3873 191.733 16.287V13.8275C191.733 13.7271 191.784 13.6769 191.883 13.6769H194.574C194.625 13.6769 194.674 13.6268 194.674 13.5766V7.30244C194.674 7.20205 194.724 7.15186 194.824 7.15186H197.266C197.366 7.15186 197.415 7.20205 197.415 7.30244V13.5766C197.415 13.6268 197.466 13.6769 197.515 13.6769ZM205.291 8.95881H202.849C202.749 8.95881 202.7 9.00901 202.7 9.10939V11.5689C202.7 11.6692 202.749 11.7194 202.849 11.7194H205.291C205.392 11.7194 205.441 11.6692 205.441 11.5689V9.10939C205.441 9.00901 205.392 8.95881 205.291 8.95881ZM225.329 24.3178C226.226 25.3218 227.472 25.9241 228.918 25.9241C230.762 25.9241 232.357 24.87 233.255 23.3643C233.255 23.2639 233.353 23.2639 233.404 23.2639L235.846 23.7156C235.946 23.7156 235.996 23.816 235.946 23.9163C234.799 26.6769 232.108 28.6345 228.967 28.6345C224.631 28.6345 221.192 25.0205 221.39 20.6538C221.54 16.7388 224.78 13.5766 228.668 13.426C232.357 13.2754 235.498 15.8352 236.295 19.2985C236.295 19.3488 236.295 19.399 236.194 19.4491L233.753 20.5032L225.379 24.067C225.278 24.1171 225.278 24.2176 225.329 24.3178ZM232.507 17.843C231.659 16.8392 230.363 16.1866 228.918 16.1866C226.226 16.1866 224.033 18.3449 224.082 21.1055V21.5071C224.082 21.5573 224.182 21.6576 224.282 21.6075C224.381 21.5573 232.456 18.094 232.456 18.094C232.556 18.0437 232.556 17.9434 232.507 17.843ZM221.042 13.677H218.649C218.6 13.677 218.549 13.7272 218.5 13.7773L214.612 25.2715C214.512 25.5225 214.213 25.5225 214.114 25.2715L210.226 13.7773C210.226 13.7272 210.175 13.677 210.076 13.677H207.684C207.584 13.677 207.534 13.7773 207.534 13.8777L212.469 28.3333C212.469 28.3836 212.518 28.4337 212.619 28.4337H216.007C216.058 28.4337 216.107 28.3836 216.157 28.3333L221.091 13.8777C221.192 13.7773 221.142 13.677 221.042 13.677ZM202.849 13.677H205.291C205.392 13.677 205.441 13.7773 205.441 13.8275V28.2832C205.441 28.3836 205.392 28.4337 205.291 28.4337H202.849C202.749 28.4337 202.7 28.3836 202.7 28.2832V13.8275C202.7 13.7272 202.749 13.677 202.849 13.677ZM184.256 25.9241C181.265 25.9241 178.924 23.2136 179.471 20.1017C179.77 18.3951 181.466 16.6383 183.16 16.287C185.004 15.8855 186.749 16.5379 187.845 17.7927C187.896 17.843 187.995 17.843 188.045 17.7927L189.789 16.0361C189.84 15.9858 189.84 15.8855 189.789 15.8352C188.344 14.2291 186.2 13.2754 183.858 13.3758C180.02 13.5766 176.83 16.7388 176.63 20.6037C176.431 24.9704 179.87 28.5843 184.207 28.5843C186.4 28.5843 188.394 27.6306 189.789 26.1248C189.84 26.0747 189.84 26.0244 189.789 25.9742L188.045 24.2176C187.995 24.1673 187.896 24.1673 187.845 24.2176C186.999 25.3217 185.702 25.9241 184.256 25.9241ZM158.337 7.15186H155.895C155.795 7.15186 155.746 7.20205 155.746 7.30244V28.2832C155.746 28.3835 155.795 28.4337 155.895 28.4337H158.337C158.437 28.4337 158.487 28.3835 158.487 28.2832V7.30244C158.487 7.20205 158.388 7.15186 158.337 7.15186ZM122.349 20.1017C121.801 23.2136 124.144 25.9241 127.135 25.9241C128.58 25.9241 129.876 25.3217 130.723 24.2176C130.773 24.1673 130.873 24.1673 130.923 24.2176L132.667 25.9742C132.717 26.0244 132.717 26.0747 132.667 26.1248C131.272 27.6306 129.278 28.5843 127.085 28.5843C122.748 28.5843 119.309 24.9704 119.508 20.6037C119.708 16.7388 122.898 13.5766 126.736 13.3758C129.078 13.2754 131.222 14.2291 132.667 15.8352C132.717 15.8855 132.717 15.9858 132.667 16.0361L130.923 17.7927C130.873 17.843 130.773 17.843 130.723 17.7927C129.627 16.5379 127.882 15.8855 126.038 16.287C124.343 16.6383 122.648 18.3951 122.349 20.1017ZM105.293 13.426C103.698 13.426 101.854 14.4298 101.007 15.6345C100.957 15.7349 100.757 15.6846 100.757 15.5844V13.8275C100.757 13.7773 100.708 13.6769 100.608 13.6769H98.1655C98.1156 13.6769 98.016 13.7271 98.016 13.8275V21.1055V28.3333C98.016 28.3835 98.0658 28.4839 98.1655 28.4839H100.608C100.658 28.4839 100.757 28.4337 100.757 28.3333V21.1055C100.757 18.3449 102.602 16.3873 105.243 16.3873C108.733 16.3873 109.779 18.6963 109.779 21.4066V28.3333C109.779 28.3835 109.829 28.4839 109.929 28.4839H112.371C112.421 28.4839 112.521 28.4337 112.521 28.3333V21.4066C112.571 17.1905 110.577 13.426 105.293 13.426ZM85.6047 24.3178C86.5019 25.3217 87.748 25.9241 89.1934 25.9241C91.0377 25.9241 92.6327 24.87 93.5299 23.3642C93.5299 23.2639 93.6297 23.2639 93.6795 23.2639L96.1218 23.7156C96.2216 23.7156 96.2714 23.816 96.2216 23.9163C95.0751 26.6769 92.3836 28.6345 89.2433 28.6345C84.9068 28.6345 81.4675 25.0205 81.6669 20.6538C81.8165 16.7388 85.0563 13.5766 88.9442 13.426C92.6327 13.2754 95.773 15.8352 96.5704 19.2985C96.5704 19.3488 96.5704 19.399 96.4708 19.4491L94.0283 20.5032L85.6545 24.0669C85.5547 24.1171 85.5547 24.2174 85.6047 24.3178ZM167.957 25.9241C166.512 25.9241 165.265 25.3217 164.368 24.3178C164.319 24.2174 164.319 24.1171 164.419 24.0669L172.793 20.5032L175.235 19.4491C175.335 19.399 175.335 19.3488 175.335 19.2985C174.536 15.8352 171.396 13.2754 167.709 13.426C163.821 13.5766 160.58 16.7388 160.431 20.6538C160.232 25.0205 163.671 28.6345 168.008 28.6345C171.148 28.6345 173.839 26.6769 174.985 23.9163C175.036 23.816 174.985 23.7156 174.886 23.7156L172.443 23.2639C172.393 23.2639 172.293 23.2639 172.293 23.3642C171.396 24.87 169.751 25.9241 167.957 25.9241ZM167.957 16.1866C169.403 16.1866 170.699 16.839 171.546 17.843C171.596 17.9433 171.596 18.0437 171.496 18.0939C171.496 18.0939 163.421 21.5572 163.321 21.6075C163.222 21.6576 163.122 21.5572 163.122 21.5071V21.1055C163.073 18.3449 165.265 16.1866 167.957 16.1866ZM133.465 21.0554C133.465 16.8392 136.854 13.426 141.041 13.426C145.229 13.426 148.617 16.8392 148.617 21.0554C148.617 25.2715 145.229 28.6847 141.041 28.6847C136.854 28.6847 133.465 25.2715 133.465 21.0554ZM141.041 16.1866C143.733 16.1866 145.876 18.3951 145.876 21.0554C145.876 23.7156 143.683 25.9241 141.041 25.9241C138.399 25.9241 136.206 23.7156 136.206 21.0554C136.206 18.3951 138.35 16.1866 141.041 16.1866ZM89.1934 16.1866C90.6389 16.1866 91.935 16.839 92.7822 17.843C92.8322 17.9433 92.8322 18.0437 92.7324 18.0939C92.7324 18.0939 84.6575 21.5572 84.5579 21.6075C84.4582 21.6576 84.3584 21.5572 84.3584 21.5071V21.1055C84.3584 18.3449 86.5517 16.1866 89.1934 16.1866ZM68.2087 15.3334C69.2555 14.0785 70.7508 13.3256 72.645 13.2754C76.2837 13.2252 79.5734 15.8352 80.1716 19.4994C81.0688 24.3178 77.3802 28.534 72.7446 28.534C70.7508 28.534 69.2057 27.731 68.1589 26.4762C68.0592 26.3758 67.9097 26.4259 67.9097 26.5765V34.8584C67.9097 34.9589 67.8599 35.009 67.7601 35.009H65.3677C65.268 35.009 65.2181 34.9589 65.2181 34.8584V13.8275C65.2181 13.7271 65.268 13.6769 65.3677 13.6769H67.8101C67.9097 13.6769 67.9596 13.7271 67.9596 13.8275V15.2329C67.9596 15.3835 68.1091 15.4336 68.2087 15.3334ZM68.0094 20.1017C67.461 23.4144 70.3022 26.2754 73.592 25.7232C75.5858 25.372 77.2307 23.7657 77.5297 21.7581C78.0781 18.4453 75.2369 15.5842 71.9471 16.1363C69.9534 16.4376 68.3583 18.0939 68.0094 20.1017ZM56.246 13.426C52.059 13.426 48.6696 16.8392 48.6696 21.0554C48.6696 25.2715 52.059 28.6847 56.246 28.6847C60.433 28.6847 63.8224 25.2715 63.8224 21.0554C63.8224 16.8392 60.433 13.426 56.246 13.426ZM56.246 16.1866C58.9377 16.1866 61.0809 18.3951 61.0809 21.0554C61.0809 23.7156 58.8879 25.9241 56.246 25.9241C53.6043 25.9241 51.4111 23.7156 51.4111 21.0554C51.4111 18.3951 53.6043 16.1866 56.246 16.1866Z" fill="#8C8C8C"/>
<path id="Vector_2" fill-rule="evenodd" clip-rule="evenodd" d="M36.6913 8.58179C38.9069 11.7336 40.2053 15.5607 40.2053 19.6877C40.2053 23.8148 38.9069 27.6424 36.6913 30.7937L31.5754 25.7426C32.5802 23.9478 33.1519 21.8834 33.1519 19.6877C33.1519 17.492 32.5802 15.4281 31.5754 13.6333L36.6913 8.58179Z" fill="#99CFFF"/>
<path id="Vector_3" fill-rule="evenodd" clip-rule="evenodd" d="M31.7037 3.65709L26.5874 8.70825C24.7696 7.71627 22.6792 7.15164 20.4553 7.15164C13.4434 7.15164 7.75877 12.7643 7.75877 19.6875C7.75877 26.6107 13.4434 32.2233 20.4553 32.2233C22.6792 32.2233 24.7696 31.6588 26.5874 30.6668L31.7037 35.7179C28.5115 37.9053 24.6353 39.1875 20.4553 39.1875C9.54781 39.1875 0.705345 30.4569 0.705345 19.6875C0.705345 8.91802 9.54781 0.1875 20.4553 0.1875C24.6353 0.1875 28.5115 1.46959 31.7037 3.65709Z" fill="#1F87FF"/>
</g>
<defs>
<clipPath id="clip0_449_562">
<rect width="237" height="39" fill="white" transform="translate(0 0.1875)"/>
</clipPath>
</defs>
</svg>
