<svg width="139" height="36" viewBox="0 0 139 36" fill="none" xmlns="http://www.w3.org/2000/svg">
<g id="Group">
<g id="Clip path group">
<mask id="mask0_102_463" style="mask-type:luminance" maskUnits="userSpaceOnUse" x="0" y="0" width="37" height="36">
<g id="_clip1">
<path id="Vector" d="M36.8608 0H0V35.5669H36.8608V0Z" fill="white"/>
</g>
</mask>
<g mask="url(#mask0_102_463)">
<g id="Group_2">
<g id="Group_3">
<path id="Vector_2" fill-rule="evenodd" clip-rule="evenodd" d="M15.3196 20.9187L17.516 23.1151C18.3783 23.9774 19.7764 23.9774 20.6387 23.1151L22.9396 20.8143L29.0318 26.9064L21.2863 34.652C20.0663 35.872 18.0884 35.872 16.8684 34.652L9.22742 27.0109L15.3196 20.9187Z" fill="url(#paint0_linear_102_463)"/>
<path id="Vector_3" fill-rule="evenodd" clip-rule="evenodd" d="M22.5238 21.23L24.409 19.3449C25.2713 18.4826 25.2713 17.0845 24.409 16.2222L22.2473 14.0606L28.3396 7.96832L35.9459 15.5746C37.1658 16.7945 37.1658 18.7725 35.9459 19.9924L28.6161 27.3222L22.5238 21.23Z" fill="url(#paint1_linear_102_463)"/>
<path id="Vector_4" fill-rule="evenodd" clip-rule="evenodd" d="M22.5239 14.337L20.6387 12.4518C19.7764 11.5895 18.3783 11.5895 17.516 12.4518L15.1763 14.7916L9.08411 8.69938L16.8684 0.914954C18.0884 -0.304985 20.0664 -0.304985 21.2863 0.914954L28.6161 8.2448L22.5239 14.337Z" fill="url(#paint2_linear_102_463)"/>
<path id="Vector_5" fill-rule="evenodd" clip-rule="evenodd" d="M15.6309 21.23L2.20883 34.652C1.62305 35.2378 0.828448 35.567 0 35.567V19.0774C0 18.249 0.329097 17.4544 0.91488 16.8685L9.53868 8.24481L15.6309 14.337L13.7458 16.2221C12.8835 17.0844 12.8835 18.4825 13.7458 19.3448L15.6309 21.23Z" fill="url(#paint3_linear_102_463)"/>
</g>
</g>
</g>
</g>
<g id="Group_4">
<path id="Vector_6" fill-rule="evenodd" clip-rule="evenodd" d="M51.6076 21.3194V24.7849H48.6988V12.2159H54.1394C55.2646 12.2159 56.2342 12.3985 57.0482 12.7635C57.8622 13.1287 58.4906 13.6523 58.9335 14.3347C59.3765 15.017 59.5979 15.8309 59.5979 16.7767C59.5979 17.7104 59.3765 18.5184 58.9335 19.2007C58.4906 19.8829 57.8622 20.4067 57.0482 20.7718C56.2342 21.1369 55.2646 21.3194 54.1394 21.3194H51.6076ZM51.6076 18.9493H53.9777C54.8756 18.9493 55.5459 18.7577 55.9888 18.3747C56.4317 17.9917 56.6532 17.459 56.6532 16.7767C56.6532 16.0823 56.4317 15.5437 55.9888 15.1606C55.5459 14.7775 54.8756 14.5861 53.9777 14.5861H51.6076V18.9493Z" fill="white"/>
<path id="Vector_7" d="M64.446 15.1247H61.6449V24.7849H64.446V15.1247Z" fill="white"/>
<path id="Vector_8" fill-rule="evenodd" clip-rule="evenodd" d="M64.6988 11.7317C64.9662 11.9991 64.9662 12.4326 64.6988 12.7001C64.3493 13.0496 63.8792 13.5197 63.5296 13.8693C63.2622 14.1367 62.8287 14.1367 62.5613 13.8693C62.2117 13.5197 61.7416 13.0496 61.392 12.7001C61.1246 12.4326 61.1246 11.9991 61.392 11.7317C61.7416 11.3821 62.2117 10.912 62.5613 10.5625C62.8287 10.2951 63.2622 10.2951 63.5296 10.5625C63.8792 10.912 64.3493 11.3821 64.6988 11.7317Z" fill="white"/>
<path id="Vector_9" fill-rule="evenodd" clip-rule="evenodd" d="M80.7868 11.7317C81.0543 11.9991 81.0543 12.4326 80.7868 12.7001C80.4372 13.0496 79.9671 13.5197 79.6176 13.8693C79.3502 14.1367 78.9166 14.1367 78.6492 13.8693C78.2996 13.5197 77.8296 13.0496 77.48 12.7001C77.2126 12.4326 77.2126 11.9991 77.48 11.7317C77.8296 11.3821 78.2996 10.912 78.6492 10.5625C78.9166 10.2951 79.3502 10.2951 79.6176 10.5625C79.9671 10.912 80.4372 11.3821 80.7868 11.7317Z" fill="white"/>
<path id="Vector_10" fill-rule="evenodd" clip-rule="evenodd" d="M110.594 11.7317C110.861 11.9991 110.861 12.4326 110.594 12.7001C110.244 13.0496 109.774 13.5197 109.424 13.8693C109.157 14.1367 108.723 14.1367 108.456 13.8693C108.106 13.5197 107.636 13.0496 107.287 12.7001C107.019 12.4326 107.019 11.9991 107.287 11.7317C107.636 11.3821 108.106 10.912 108.456 10.5625C108.723 10.2951 109.157 10.2951 109.424 10.5625C109.774 10.912 110.244 11.3821 110.594 11.7317Z" fill="white"/>
<path id="Vector_11" fill-rule="evenodd" clip-rule="evenodd" d="M71.075 21.826L68.881 24.7849H65.8286L69.5448 19.9122L65.9543 15.1247H69.0965L71.1457 17.9459L73.2443 15.1247H76.225L72.6316 19.8489L76.3686 24.7849H73.1904L71.075 21.826Z" fill="white"/>
<path id="Vector_12" d="M80.5343 15.1247H77.7332V24.7849H80.5343V15.1247Z" fill="white"/>
<path id="Vector_13" fill-rule="evenodd" clip-rule="evenodd" d="M86.2259 19.5418V22.4507H93.067V24.7849H83.3351V12.2159H92.8336V14.5501H86.2259V17.2794H92.0615V19.5418H86.2259Z" fill="white"/>
<path id="Vector_14" fill-rule="evenodd" clip-rule="evenodd" d="M102.279 23.6695C102.04 23.9614 101.761 24.2016 101.444 24.39C100.84 24.749 100.113 24.9286 99.2626 24.9286C98.3528 24.9286 97.5329 24.7221 96.8027 24.3092C96.0725 23.8961 95.4949 23.3186 95.07 22.5764C94.645 21.8342 94.4325 20.9604 94.4325 19.9549C94.4325 18.9374 94.645 18.0575 95.07 17.3153C95.4949 16.5732 96.0725 15.9986 96.8027 15.5916C97.5329 15.1846 98.3528 14.9811 99.2626 14.9811C100.077 14.9811 100.789 15.1607 101.399 15.5198C101.68 15.6848 101.931 15.8889 102.153 16.1321V11.4618H104.955V24.785H102.279V23.6695ZM99.7474 22.6302C100.202 22.6302 100.615 22.5226 100.986 22.307C101.357 22.0916 101.654 21.7833 101.875 21.3823C102.097 20.9813 102.207 20.5055 102.207 19.9549C102.207 19.3922 102.097 18.9134 101.875 18.5184C101.654 18.1233 101.357 17.8181 100.986 17.6026C100.615 17.3872 100.202 17.2795 99.7474 17.2795C99.2806 17.2795 98.8616 17.3872 98.4905 17.6026C98.1195 17.8181 97.8231 18.1233 97.6017 18.5184C97.3802 18.9134 97.2695 19.3922 97.2695 19.9549C97.2695 20.5055 97.3802 20.9813 97.6017 21.3823C97.8231 21.7833 98.1195 22.0916 98.4905 22.307C98.8616 22.5226 99.2806 22.6302 99.7474 22.6302Z" fill="white"/>
<path id="Vector_15" d="M110.341 15.1247H107.54V24.7849H110.341V15.1247Z" fill="white"/>
<path id="Vector_16" fill-rule="evenodd" clip-rule="evenodd" d="M113.286 17.4949H111.795V15.3402H113.286V12.988H116.087V15.3402H118.493V17.4949H116.087V21.4272C116.087 21.8342 116.195 22.1485 116.41 22.3699C116.626 22.5913 116.919 22.7021 117.29 22.7021C117.733 22.7021 118.11 22.5823 118.421 22.343L119.175 24.3181C118.888 24.5216 118.544 24.6742 118.143 24.7759C117.742 24.8777 117.326 24.9286 116.895 24.9286C115.758 24.9286 114.872 24.6383 114.237 24.0578C113.603 23.4772 113.286 22.6123 113.286 21.4632V17.4949Z" fill="white"/>
<path id="Vector_17" d="M125.046 24.9286C124.017 24.9286 123.104 24.7131 122.308 24.2822C121.512 23.8512 120.884 23.2617 120.423 22.5135C119.962 21.7654 119.732 20.9125 119.732 19.9549C119.732 18.9852 119.962 18.1263 120.423 17.3782C120.884 16.6301 121.512 16.0435 122.308 15.6185C123.104 15.1936 124.017 14.9811 125.046 14.9811C126.064 14.9811 126.974 15.1936 127.776 15.6185C128.578 16.0435 129.206 16.6271 129.661 17.3692C130.116 18.1114 130.343 18.9733 130.343 19.9549C130.343 20.9125 130.116 21.7654 129.661 22.5135C129.206 23.2617 128.578 23.8512 127.776 24.2822C126.974 24.7131 126.064 24.9286 125.046 24.9286ZM125.046 22.6302C125.513 22.6302 125.932 22.5225 126.303 22.307C126.674 22.0916 126.968 21.7833 127.183 21.3823C127.399 20.9813 127.506 20.5055 127.506 19.9549C127.506 19.3922 127.399 18.9134 127.183 18.5184C126.968 18.1233 126.674 17.8181 126.303 17.6026C125.932 17.3872 125.513 17.2794 125.046 17.2794C124.58 17.2794 124.161 17.3872 123.789 17.6026C123.418 17.8181 123.122 18.1233 122.901 18.5184C122.679 18.9134 122.568 19.3922 122.568 19.9549C122.568 20.5055 122.679 20.9813 122.901 21.3823C123.122 21.7833 123.418 22.0916 123.789 22.307C124.161 22.5225 124.58 22.6302 125.046 22.6302Z" fill="white"/>
<path id="Vector_18" fill-rule="evenodd" clip-rule="evenodd" d="M134.886 16.392C135.15 16.0308 135.485 15.737 135.892 15.5108C136.526 15.1576 137.298 14.9811 138.208 14.9811V17.5667C138.088 17.5548 137.981 17.5457 137.885 17.5397C137.789 17.5338 137.687 17.5308 137.58 17.5308C136.813 17.5308 136.194 17.7492 135.721 18.1862C135.248 18.6231 135.012 19.3025 135.012 20.2242V24.785H132.211V15.1247H134.886V16.392Z" fill="white"/>
</g>
</g>
<defs>
<linearGradient id="paint0_linear_102_463" x1="19.0774" y1="28.854" x2="10.4438" y2="20.2204" gradientUnits="userSpaceOnUse">
<stop stop-color="#DF002C"/>
<stop offset="1" stop-color="#7F0019"/>
</linearGradient>
<linearGradient id="paint1_linear_102_463" x1="33.7699" y1="13.3986" x2="18.4304" y2="29.968" gradientUnits="userSpaceOnUse">
<stop stop-color="#CB1133"/>
<stop offset="1" stop-color="#7D0017"/>
</linearGradient>
<linearGradient id="paint2_linear_102_463" x1="14.1366" y1="3.64677" x2="33.4559" y2="22.4823" gradientUnits="userSpaceOnUse">
<stop stop-color="#BD0625"/>
<stop offset="1" stop-color="#690012"/>
</linearGradient>
<linearGradient id="paint3_linear_102_463" x1="-5.33219e-07" y1="31.103" x2="25.2234" y2="5.87955" gradientUnits="userSpaceOnUse">
<stop stop-color="#9B081F"/>
<stop offset="1" stop-color="#4F000C"/>
</linearGradient>
</defs>
</svg>
