<svg width="25" height="25" viewBox="0 0 25 25" fill="none" xmlns="http://www.w3.org/2000/svg">
<g id="Vector">
<path fill-rule="evenodd" clip-rule="evenodd" d="M13.391 9.1815C13.3914 9.98804 13.7118 10.7615 14.2818 11.3321C14.8518 11.9027 15.625 12.2238 16.4315 12.225C17.238 12.2238 18.0112 11.9027 18.5812 11.3321C19.1512 10.7615 19.4716 9.98804 19.472 9.1815C19.4708 8.37547 19.1501 7.6028 18.5801 7.03285C18.0102 6.46291 17.2375 6.14219 16.4315 6.141C15.6255 6.14219 14.8528 6.46291 14.2829 7.03285C13.7129 7.6028 13.3922 8.37547 13.391 9.1815ZM17.3107 7.06558C17.0334 6.95052 16.7362 6.8912 16.436 6.891C15.8297 6.8906 15.2481 7.13107 14.8191 7.55949C14.3901 7.98792 14.1489 8.56921 14.1485 9.1755C14.1481 9.78178 14.3886 10.3634 14.817 10.7924C15.2454 11.2214 15.8267 11.4626 16.433 11.463C16.7332 11.4632 17.0305 11.4043 17.3079 11.2896C17.5854 11.1749 17.8375 11.0066 18.0499 10.7945C18.2623 10.5824 18.4309 10.3305 18.5459 10.0532C18.661 9.77592 18.7203 9.4787 18.7205 9.1785C18.7207 8.8783 18.6618 8.581 18.5471 8.30357C18.4324 8.02614 18.2641 7.77403 18.052 7.56161C17.8399 7.3492 17.588 7.18065 17.3107 7.06558Z" fill="white"/>
<path d="M7.802 19.212C8.42695 19.4505 9.12024 19.4363 9.73485 19.1722C10.3495 18.9082 10.837 18.4151 11.0942 17.7976C11.3514 17.1801 11.3579 16.4866 11.1123 15.8644C10.8668 15.2422 10.3885 14.74 9.779 14.4645C9.17479 14.2116 8.49642 14.2008 7.8845 14.4345L9.419 15.0705C9.64849 15.166 9.85691 15.3058 10.0324 15.4819C10.2078 15.658 10.3469 15.8669 10.4416 16.0968C10.5363 16.3266 10.5848 16.5728 10.5844 16.8214C10.5839 17.07 10.5345 17.316 10.439 17.5455C10.3435 17.775 10.2037 17.9834 10.0276 18.1589C9.85149 18.3343 9.64258 18.4734 9.41275 18.5681C9.18293 18.6628 8.9367 18.7113 8.68812 18.7109C8.43954 18.7104 8.19349 18.661 7.964 18.5655L6.479 17.9505C6.74924 18.5195 7.22052 18.9698 7.802 19.212Z" fill="white"/>
<path d="M0.9935 15.687C1.74619 18.1477 3.26898 20.3017 5.3377 21.832C7.40643 23.3622 9.9118 24.1879 12.485 24.1875C19.121 24.1875 24.5 18.8145 24.5 12.1875C24.5 5.5605 19.121 0.187501 12.4865 0.187501C9.44041 0.186323 6.50769 1.34274 4.28218 3.42259C2.05668 5.50244 0.704696 8.3503 0.5 11.3895L0.5045 11.3985L6.9605 14.052C7.54286 13.6667 8.23243 13.4761 8.93 13.5075L11.87 9.2415L11.8685 9.1815C11.8697 7.97155 12.3508 6.81147 13.2062 5.95576C14.0616 5.10005 15.2215 4.61859 16.4315 4.617C17.6415 4.61859 18.8014 5.10005 19.6568 5.95576C20.5122 6.81147 20.9933 7.97155 20.9945 9.1815C20.994 9.78949 20.8723 10.3913 20.6363 10.9516C20.4004 11.512 20.055 12.0196 19.6205 12.4448C19.1859 12.87 18.6709 13.2043 18.1055 13.428C17.5402 13.6516 16.9359 13.7603 16.328 13.7475L12.122 16.7475C12.1363 17.3032 12.0114 17.8537 11.7587 18.3488C11.506 18.8439 11.1336 19.268 10.6752 19.5826C10.2169 19.8971 9.68716 20.092 9.13427 20.1496C8.58138 20.2072 8.02286 20.1257 7.5095 19.9125C7.01699 19.7069 6.58113 19.3859 6.23863 18.9765C5.89613 18.5672 5.65704 18.0816 5.5415 17.5605L0.995 15.687H0.9935Z" fill="white"/>
</g>
</svg>
