<?xml version="1.0" encoding="UTF-8" standalone="no"?>
<!DOCTYPE svg PUBLIC "-//W3C//DTD SVG 1.1//EN" "http://www.w3.org/Graphics/SVG/1.1/DTD/svg11.dtd">
<svg width="100%" height="100%" viewBox="0 0 117 117" version="1.1" xmlns="http://www.w3.org/2000/svg" xmlns:xlink="http://www.w3.org/1999/xlink" xml:space="preserve" xmlns:serif="http://www.serif.com/" style="fill-rule:evenodd;clip-rule:evenodd;stroke-linecap:round;stroke-linejoin:round;">
    <g>
        <g transform="matrix(1,0,0,1,-4.16667,-4.16667)">
            <circle cx="50" cy="50" r="41.667" style="fill:none;stroke:white;stroke-width:8.33px;"/>
        </g>
        <g transform="matrix(1,0,0,1,20.8333,20.8333)">
            <circle cx="50" cy="50" r="41.667" style="fill:none;stroke:white;stroke-width:8.33px;"/>
        </g>
        <g transform="matrix(1,0,0,1,-4.16667,0.833333)">
            <path d="M45,65L55,75" style="fill:none;stroke:white;stroke-width:8.3px;stroke-miterlimit:1.5;"/>
        </g>
        <g transform="matrix(-1,-1.22465e-16,1.22465e-16,-1,119.833,114.833)">
            <path d="M45,65L55,75" style="fill:none;stroke:white;stroke-width:8.3px;stroke-miterlimit:1.5;"/>
        </g>
        <g transform="matrix(1.6,0,0,1.6,-26.1667,-50.1667)">
            <path d="M45,65L55,75" style="fill:none;stroke:white;stroke-width:5.19px;stroke-miterlimit:1.5;"/>
        </g>
        <g transform="matrix(-1.6,-1.95943e-16,1.95943e-16,-1.6,141.833,165.833)">
            <path d="M45,65L55,75" style="fill:none;stroke:white;stroke-width:5.19px;stroke-miterlimit:1.5;"/>
        </g>
    </g>
</svg>
