<svg id="visual" viewBox="0 0 1920 600" width="1920" height="600" xmlns="http://www.w3.org/2000/svg" xmlns:xlink="http://www.w3.org/1999/xlink" version="1.1"><rect x="0" y="0" width="1920" height="600" fill="#252525"></rect><path d="M0 242L45.7 236.7C91.3 231.3 182.7 220.7 274.2 210.8C365.7 201 457.3 192 548.8 193.5C640.3 195 731.7 207 823 206.2C914.3 205.3 1005.7 191.7 1097 196.3C1188.3 201 1279.7 224 1371.2 231.3C1462.7 238.7 1554.3 230.3 1645.8 220.3C1737.3 210.3 1828.7 198.7 1874.3 192.8L1920 187L1920 0L1874.3 0C1828.7 0 1737.3 0 1645.8 0C1554.3 0 1462.7 0 1371.2 0C1279.7 0 1188.3 0 1097 0C1005.7 0 914.3 0 823 0C731.7 0 640.3 0 548.8 0C457.3 0 365.7 0 274.2 0C182.7 0 91.3 0 45.7 0L0 0Z" fill="#252525"></path><path d="M0 177L45.7 173.5C91.3 170 182.7 163 274.2 157.7C365.7 152.3 457.3 148.7 548.8 142.8C640.3 137 731.7 129 823 136.7C914.3 144.3 1005.7 167.7 1097 173.3C1188.3 179 1279.7 167 1371.2 157.7C1462.7 148.3 1554.3 141.7 1645.8 148.7C1737.3 155.7 1828.7 176.3 1874.3 186.7L1920 197L1920 0L1874.3 0C1828.7 0 1737.3 0 1645.8 0C1554.3 0 1462.7 0 1371.2 0C1279.7 0 1188.3 0 1097 0C1005.7 0 914.3 0 823 0C731.7 0 640.3 0 548.8 0C457.3 0 365.7 0 274.2 0C182.7 0 91.3 0 45.7 0L0 0Z" fill="#4d2c2b"></path><path d="M0 107L45.7 114.7C91.3 122.3 182.7 137.7 274.2 136.2C365.7 134.7 457.3 116.3 548.8 111.2C640.3 106 731.7 114 823 117.2C914.3 120.3 1005.7 118.7 1097 115.2C1188.3 111.7 1279.7 106.3 1371.2 109.3C1462.7 112.3 1554.3 123.7 1645.8 128.3C1737.3 133 1828.7 131 1874.3 130L1920 129L1920 0L1874.3 0C1828.7 0 1737.3 0 1645.8 0C1554.3 0 1462.7 0 1371.2 0C1279.7 0 1188.3 0 1097 0C1005.7 0 914.3 0 823 0C731.7 0 640.3 0 548.8 0C457.3 0 365.7 0 274.2 0C182.7 0 91.3 0 45.7 0L0 0Z" fill="#742f31"></path><path d="M0 98L45.7 93.3C91.3 88.7 182.7 79.3 274.2 74.7C365.7 70 457.3 70 548.8 73.3C640.3 76.7 731.7 83.3 823 85.3C914.3 87.3 1005.7 84.7 1097 80.7C1188.3 76.7 1279.7 71.3 1371.2 71.2C1462.7 71 1554.3 76 1645.8 78.8C1737.3 81.7 1828.7 82.3 1874.3 82.7L1920 83L1920 0L1874.3 0C1828.7 0 1737.3 0 1645.8 0C1554.3 0 1462.7 0 1371.2 0C1279.7 0 1188.3 0 1097 0C1005.7 0 914.3 0 823 0C731.7 0 640.3 0 548.8 0C457.3 0 365.7 0 274.2 0C182.7 0 91.3 0 45.7 0L0 0Z" fill="#9c2e37"></path><path d="M0 45L45.7 49.7C91.3 54.3 182.7 63.7 274.2 63.8C365.7 64 457.3 55 548.8 54.8C640.3 54.7 731.7 63.3 823 63.5C914.3 63.7 1005.7 55.3 1097 48.2C1188.3 41 1279.7 35 1371.2 35C1462.7 35 1554.3 41 1645.8 40.2C1737.3 39.3 1828.7 31.7 1874.3 27.8L1920 24L1920 0L1874.3 0C1828.7 0 1737.3 0 1645.8 0C1554.3 0 1462.7 0 1371.2 0C1279.7 0 1188.3 0 1097 0C1005.7 0 914.3 0 823 0C731.7 0 640.3 0 548.8 0C457.3 0 365.7 0 274.2 0C182.7 0 91.3 0 45.7 0L0 0Z" fill="#c6283d"></path></svg>